<svg width="101" height="94" viewBox="0 0 101 94" fill="none" xmlns="http://www.w3.org/2000/svg">
<path d="M79.2494 28.6749C78.5109 27.7506 77.7191 26.8521 76.8949 26.0037L74.5759 28.2532C75.3274 29.0288 76.0513 29.8498 76.7252 30.6933L79.2494 28.6749Z" fill="white"/>
<path d="M80.282 36.1296L83.144 34.6283C82.5913 33.5763 81.9837 32.542 81.3389 31.5579L78.6353 33.3355C79.2235 34.2275 79.7778 35.1697 80.282 36.1296Z" fill="white"/>
<path d="M74.2932 23.5683C73.3914 22.8023 72.4445 22.0703 71.4765 21.3948L69.6261 24.0418C70.5085 24.6607 71.3747 25.3346 72.1988 26.0311L74.2932 23.5683Z" fill="white"/>
<path d="M83.9892 48.5197L87.2067 48.1965C87.0903 47.0119 86.9158 45.8258 86.6879 44.6687L83.5173 45.2941C83.7209 46.3558 83.8809 47.4385 83.9892 48.5197Z" fill="white"/>
<path d="M82.7335 42.146L85.8298 41.2184C85.4921 40.0872 85.0929 38.956 84.6469 37.8604L81.6524 39.0788C82.0613 40.084 82.4249 41.1118 82.7335 42.146Z" fill="white"/>
<path d="M84.0086 55.0176L87.2261 55.3133C87.3295 54.1821 87.3877 53.0266 87.3877 51.7581L84.1508 51.8809C84.1508 52.9281 84.1024 53.9817 84.0086 55.0176Z" fill="white"/>
<path d="M42.2961 88.2025C43.3319 88.4271 44.3888 88.6098 45.4392 88.7439L45.8481 85.5393C44.8914 85.4149 43.9266 85.2484 42.9829 85.0432L42.2961 88.2025Z" fill="white"/>
<path d="M48.7439 85.7848L48.6033 89.0168C49.1388 89.0384 49.6758 89.0492 50.2145 89.0492C50.7429 89.0492 51.2681 89.0379 51.7933 89.0152L51.656 85.7832C50.688 85.8285 49.7087 85.8268 48.7439 85.7848Z" fill="white"/>
<path d="M36.2036 86.3182C37.1894 86.719 38.1994 87.081 39.2062 87.3912L40.1596 84.303C39.2434 84.0202 38.3222 83.6906 37.4221 83.3237L36.2036 86.3182Z" fill="white"/>
<path d="M60.2339 84.3126L61.1857 87.4008C62.1973 87.089 63.2073 86.727 64.1899 86.3278L62.9811 83.335C62.0842 83.6986 61.1614 84.0282 60.2339 84.3126Z" fill="white"/>
<path d="M54.5583 85.541L54.9672 88.7472C56.016 88.613 57.068 88.424 58.1103 88.2074L57.4267 85.0481C56.4798 85.2533 55.515 85.4198 54.5583 85.541Z" fill="white"/>
<path d="M16.4189 54.9803C16.3252 53.9574 16.2783 52.9135 16.2783 51.8808V51.7192L13.0463 51.8808C13.0463 53.012 13.098 54.1513 13.2079 55.2745L16.4189 54.9803Z" fill="white"/>
<path d="M18.7862 39.0529L15.7934 37.8296C15.3473 38.922 14.9482 40.0516 14.6072 41.186L17.7035 42.1153C18.0138 41.0794 18.379 40.05 18.7862 39.0529Z" fill="white"/>
<path d="M30.8223 24.0304L28.9736 21.3801C28.004 22.0589 27.0521 22.7909 26.1536 23.5553L28.2367 26.0245C29.0641 25.3184 29.9286 24.6493 30.8223 24.0304Z" fill="white"/>
<path d="M16.9246 45.2681L13.7507 44.6411C13.5212 45.8014 13.3467 46.9876 13.2287 48.164L16.4462 48.4872C16.5513 47.4093 16.7129 46.3266 16.9246 45.2681Z" fill="white"/>
<path d="M21.8067 33.3064L19.1047 31.5288C18.4583 32.5194 17.8474 33.5521 17.298 34.5992L20.1583 36.1037C20.6609 35.1535 21.2152 34.2114 21.8067 33.3064Z" fill="white"/>
<path d="M25.8676 28.2403L23.5503 25.9875C22.7277 26.8327 21.9343 27.7312 21.1941 28.654L23.7151 30.6772C24.3938 29.832 25.1178 29.0127 25.8676 28.2403Z" fill="white"/>
<path d="M82.5348 58.3449C80.0502 58.3463 77.5936 58.8704 75.3248 59.8833C73.056 60.8962 71.0257 62.3751 69.3659 64.224L58.8247 56.3185C59.5271 54.9646 59.8993 53.4638 59.9107 51.9386C59.9222 50.4134 59.5725 48.9072 58.8904 47.543C58.2083 46.1787 57.2131 44.9953 55.9861 44.0893C54.7591 43.1834 53.3351 42.5806 51.8306 42.3303V35.6383C56.3861 35.2225 60.606 33.0664 63.6124 29.6186C66.6189 26.1708 68.1804 21.6967 67.9723 17.127C67.7641 12.5572 65.8023 8.2436 62.4949 5.08339C59.1875 1.92318 54.789 0.159668 50.2145 0.159668C45.6401 0.159668 41.2416 1.92318 37.9342 5.08339C34.6268 8.2436 32.665 12.5572 32.4568 17.127C32.2487 21.6967 33.8102 26.1708 36.8167 29.6186C39.8231 33.0664 44.043 35.2225 48.5985 35.6383V42.3303C47.0939 42.5808 45.67 43.1838 44.443 44.0899C43.216 44.9961 42.2208 46.1797 41.5387 47.544C40.8566 48.9083 40.507 50.4146 40.5184 51.9399C40.5299 53.4652 40.902 54.9661 41.6044 56.3201L31.0648 64.224C27.9902 60.8177 23.7207 58.728 19.1446 58.3896C14.5685 58.0511 10.038 59.49 6.49579 62.4069C2.95355 65.3238 0.672288 69.494 0.126586 74.0501C-0.419115 78.6062 0.812768 83.1972 3.56595 86.8681C6.31913 90.5391 10.3816 93.0072 14.9083 93.759C19.4349 94.5108 24.0771 93.4885 27.8691 90.9047C31.6612 88.3208 34.311 84.3745 35.2674 79.8866C36.2238 75.3988 35.4131 70.715 33.004 66.8096L43.5453 58.9057C45.3408 60.6221 47.729 61.58 50.2129 61.58C52.6969 61.58 55.0851 60.6221 56.8806 58.9057L67.4219 66.8096C65.3648 70.1591 64.4771 74.0964 64.8979 78.0045C65.3187 81.9126 67.0242 85.5707 69.7472 88.4054C72.4702 91.2402 76.0568 93.0914 79.9448 93.6689C83.8329 94.2465 87.8027 93.5178 91.2321 91.597C94.6615 89.6762 97.3568 86.6718 98.8954 83.0548C100.434 79.4378 100.729 75.4124 99.7346 71.6097C98.74 67.8069 96.5117 64.4416 93.3992 62.0411C90.2866 59.6406 86.4655 58.3407 82.5348 58.3449ZM11.4302 89.13V85.8172C11.4302 84.1028 12.1113 82.4586 13.3235 81.2464C14.5358 80.0341 16.1799 79.3531 17.8943 79.3531C19.6087 79.3531 21.2528 80.0341 22.4651 81.2464C23.6773 82.4586 24.3583 84.1028 24.3583 85.8172V89.13C22.3529 90.1389 20.1392 90.6644 17.8943 90.6644C15.6494 90.6644 13.4356 90.1389 11.4302 89.13ZM14.6623 72.8891V71.273C14.6623 70.4159 15.0028 69.5938 15.6089 68.9877C16.215 68.3815 17.0371 68.041 17.8943 68.041C18.7515 68.041 19.5735 68.3815 20.1797 68.9877C20.7858 69.5938 21.1263 70.4159 21.1263 71.273V72.8891C21.1263 73.7463 20.7858 74.5683 20.1797 75.1745C19.5735 75.7806 18.7515 76.1211 17.8943 76.1211C17.0371 76.1211 16.215 75.7806 15.6089 75.1745C15.0028 74.5683 14.6623 73.7463 14.6623 72.8891ZM27.5904 86.9306V85.8172C27.5894 84.0824 27.123 82.3797 26.2398 80.8866C25.3567 79.3935 24.0892 78.1647 22.5694 77.3283C23.7149 76.1339 24.3556 74.5439 24.3583 72.8891V71.273C24.3583 69.5587 23.6773 67.9145 22.4651 66.7023C21.2528 65.49 19.6087 64.809 17.8943 64.809C16.1799 64.809 14.5358 65.49 13.3235 66.7023C12.1113 67.9145 11.4302 69.5587 11.4302 71.273V72.8891C11.4329 74.5439 12.0737 76.1339 13.2192 77.3283C11.6994 78.1647 10.4319 79.3935 9.54873 80.8866C8.6656 82.3797 8.19921 84.0824 8.1982 85.8172V86.9306C6.00272 84.9669 4.45523 82.3829 3.76049 79.5204C3.06576 76.658 3.25653 73.652 4.30757 70.9004C5.35861 68.1487 7.22036 65.7811 9.64649 64.1107C12.0726 62.4403 14.9487 61.5459 17.8943 61.5459C20.8398 61.5459 23.716 62.4403 26.1421 64.1107C28.5682 65.7811 30.43 68.1487 31.481 70.9004C32.532 73.652 32.7228 76.658 32.0281 79.5204C31.3333 82.3829 29.7858 84.9669 27.5904 86.9306ZM46.9825 14.7126V13.0966C46.9825 12.2394 47.323 11.4173 47.9292 10.8112C48.5353 10.2051 49.3574 9.86456 50.2145 9.86456C51.0717 9.86456 51.8938 10.2051 52.4999 10.8112C53.1061 11.4173 53.4466 12.2394 53.4466 13.0966V14.7126C53.4466 15.5698 53.1061 16.3919 52.4999 16.998C51.8938 17.6041 51.0717 17.9446 50.2145 17.9446C49.3574 17.9446 48.5353 17.6041 47.9292 16.998C47.323 16.3919 46.9825 15.5698 46.9825 14.7126ZM50.2145 21.1766C51.9289 21.1766 53.5731 21.8577 54.7853 23.0699C55.9976 24.2822 56.6786 25.9263 56.6786 27.6407V30.9535C54.6732 31.9625 52.4595 32.488 50.2145 32.488C47.9696 32.488 45.7559 31.9625 43.7505 30.9535V27.6407C43.7505 25.9263 44.4315 24.2822 45.6438 23.0699C46.856 21.8577 48.5002 21.1766 50.2145 21.1766ZM35.6704 17.9446C35.6653 15.5173 36.2677 13.1272 37.4228 10.9923C38.578 8.85744 40.2491 7.04562 42.2838 5.72201C44.3185 4.3984 46.6522 3.60511 49.0721 3.41444C51.4919 3.22377 53.921 3.64178 56.138 4.63038C58.3549 5.61898 60.2891 7.14673 61.7644 9.07436C63.2396 11.002 64.2089 13.2682 64.584 15.6664C64.959 18.0646 64.7279 20.5186 63.9116 22.8046C63.0953 25.0905 61.7199 27.1359 59.9106 28.7541V27.6407C59.9096 25.906 59.4432 24.2033 58.5601 22.7102C57.677 21.2171 56.4094 19.9882 54.8897 19.1518C56.0351 17.9575 56.6759 16.3674 56.6786 14.7126V13.0966C56.6786 11.3822 55.9976 9.73805 54.7853 8.52581C53.5731 7.31356 51.9289 6.63253 50.2145 6.63253C48.5002 6.63253 46.856 7.31356 45.6438 8.52581C44.4315 9.73805 43.7505 11.3822 43.7505 13.0966V14.7126C43.7532 16.3674 44.394 17.9575 45.5394 19.1518C44.0197 19.9882 42.7521 21.2171 41.869 22.7102C40.9859 24.2033 40.5195 25.906 40.5185 27.6407V28.7541C38.9948 27.3953 37.7753 25.73 36.9399 23.8672C36.1044 22.0044 35.6718 19.9862 35.6704 17.9446ZM50.2145 58.3449C48.9361 58.3449 47.6863 57.9658 46.6233 57.2556C45.5603 56.5453 44.7318 55.5357 44.2425 54.3546C43.7533 53.1734 43.6253 51.8737 43.8747 50.6198C44.1241 49.3659 44.7398 48.2141 45.6438 47.3101C46.5478 46.4061 47.6996 45.7905 48.9535 45.541C50.2074 45.2916 51.5071 45.4196 52.6882 45.9089C53.8694 46.3981 54.8789 47.2267 55.5892 48.2897C56.2995 49.3527 56.6786 50.6024 56.6786 51.8809C56.6786 53.5953 55.9976 55.2394 54.7853 56.4517C53.5731 57.6639 51.9289 58.3449 50.2145 58.3449ZM76.0708 89.13V85.8172C76.0708 84.1028 76.7518 82.4586 77.964 81.2464C79.1763 80.0341 80.8204 79.3531 82.5348 79.3531C84.2492 79.3531 85.8933 80.0341 87.1056 81.2464C88.3178 82.4586 88.9989 84.1028 88.9989 85.8172V89.13C86.9935 90.1389 84.7797 90.6644 82.5348 90.6644C80.2899 90.6644 78.0762 90.1389 76.0708 89.13ZM79.3028 72.8891V71.273C79.3028 70.4159 79.6433 69.5938 80.2494 68.9877C80.8555 68.3815 81.6776 68.041 82.5348 68.041C83.392 68.041 84.2141 68.3815 84.8202 68.9877C85.4263 69.5938 85.7668 70.4159 85.7668 71.273V72.8891C85.7668 73.7463 85.4263 74.5683 84.8202 75.1745C84.2141 75.7806 83.392 76.1211 82.5348 76.1211C81.6776 76.1211 80.8555 75.7806 80.2494 75.1745C79.6433 74.5683 79.3028 73.7463 79.3028 72.8891ZM92.2309 86.9306V85.8172C92.2299 84.0824 91.7635 82.3797 90.8804 80.8866C89.9972 79.3935 88.7297 78.1647 87.2099 77.3283C88.3554 76.1339 88.9961 74.5439 88.9989 72.8891V71.273C88.9989 69.5587 88.3178 67.9145 87.1056 66.7023C85.8933 65.49 84.2492 64.809 82.5348 64.809C80.8204 64.809 79.1763 65.49 77.964 66.7023C76.7518 67.9145 76.0708 69.5587 76.0708 71.273V72.8891C76.0735 74.5439 76.7142 76.1339 77.8597 77.3283C76.3399 78.1647 75.0724 79.3935 74.1893 80.8866C73.3061 82.3797 72.8397 84.0824 72.8387 85.8172V86.9306C70.6432 84.9669 69.0958 82.3829 68.401 79.5204C67.7063 76.658 67.8971 73.652 68.9481 70.9004C69.9991 68.1487 71.8609 65.7811 74.287 64.1107C76.7131 62.4403 79.5893 61.5459 82.5348 61.5459C85.4804 61.5459 88.3565 62.4403 90.7826 64.1107C93.2087 65.7811 95.0705 68.1487 96.1215 70.9004C97.1726 73.652 97.3633 76.658 96.6686 79.5204C95.9739 82.3829 94.4264 84.9669 92.2309 86.9306Z" fill="white"/>
</svg>
