<svg width="116" height="73" viewBox="0 0 116 73" fill="none" xmlns="http://www.w3.org/2000/svg">
<path d="M2.19744 36.7931L11.4423 40.4403C12.6639 40.922 13.9959 40.6675 14.9486 39.8691L22.2697 44.4862L23.5253 45.3689C21.9325 47.8897 22.3406 51.3343 24.7623 53.3876C26.0929 54.5159 27.7837 54.9974 29.4388 54.817C29.536 56.5568 30.3271 58.1062 31.6147 59.1976C32.88 60.2706 34.5319 60.82 36.2909 60.6281C36.3888 62.3672 37.1795 63.9162 38.467 65.0078C39.7441 66.0907 41.3992 66.6286 43.1462 66.438C43.2375 68.0763 43.9722 69.6756 45.3194 70.8179C47.9217 73.0249 51.8364 72.7047 54.0429 70.1027L55.5119 68.3783L57.9876 70.2053C62.2678 73.3647 68.3174 70.7765 68.8754 65.525C73.2884 67.1286 77.9742 64.0358 78.0421 59.2862C82.2018 60.0683 85.8929 57.0471 86.1247 53.0396C91.5203 54.4808 96.4007 49.0284 94.0181 43.6969L100.634 39.4477C101.581 40.5699 103.155 40.9938 104.559 40.4401L113.804 36.7931C115.583 36.0912 116.46 34.0723 115.758 32.2925L111.532 21.582C111.188 20.7088 110.201 20.2806 109.328 20.625C108.455 20.9694 108.027 21.9563 108.371 22.8292L112.596 33.5395C112.611 33.5759 112.593 33.6174 112.556 33.6319L103.311 37.2789C103.275 37.2931 103.234 37.2755 103.219 37.239C102.895 36.4184 92.5187 10.1146 91.6012 7.78869C91.5978 7.78053 91.5903 7.7615 91.6021 7.73454C91.6139 7.70758 91.6331 7.70011 91.641 7.69671L100.886 4.04952C100.894 4.04612 100.913 4.03864 100.94 4.05043C100.967 4.06221 100.975 4.08124 100.978 4.08939L105.457 15.4433C105.802 16.3165 106.789 16.7447 107.662 16.4003C108.535 16.0559 108.963 15.069 108.619 14.1961L104.14 2.8424C103.438 1.06298 101.419 0.186189 99.6394 0.888304L90.394 4.53549C88.7422 5.18708 87.8701 6.9597 88.3133 8.64011L83.3573 10.4694C81.8151 11.0387 80.1408 11.2039 78.5159 10.9463L73.5061 10.1522C72.5795 10.0056 71.7086 10.6379 71.562 11.5643C71.4152 12.4912 72.0473 13.3619 72.9742 13.5087L77.9839 14.3028C80.1822 14.651 82.4469 14.4279 84.5343 13.6573L89.5352 11.8113C90.078 13.1874 98.6441 34.9007 99.2062 36.3255L91.9145 41.0088L91.7908 40.9174C91.7903 40.917 91.7897 40.9165 91.7892 40.9163C91.008 40.3397 78.3294 30.9832 77.7345 30.5439C77.3702 30.2749 76.9175 30.1542 76.3968 30.2425C69.3576 31.4395 63.0508 28.9364 58.411 24.0918C56.9674 22.5845 54.612 22.5036 53.0481 23.9079C48.547 27.9504 42.2569 31.8924 37.856 27.7098C37.4187 27.2945 37.4155 26.5274 38.0796 26.0987C43.6856 22.4925 49.4931 17.4291 54.1666 12.7012C55.3298 11.5242 57.0027 10.9771 58.6446 11.2374L65.0946 12.2599C66.0233 12.4069 66.8919 11.7744 67.0387 10.8477C67.1855 9.92086 66.5534 9.05019 65.6265 8.90338L59.1766 7.8809C56.4569 7.44998 53.6809 8.35895 51.7499 10.3124C51.2093 10.8591 50.5699 11.4939 49.849 12.1901C47.6731 11.4187 45.4052 10.9578 43.0984 10.8282C36.3459 10.449 35.7603 10.3774 34.2269 10.4759C33.0234 10.5527 31.7991 10.3482 30.6855 9.88235L27.6908 8.62924C28.1231 6.95857 27.2524 5.18391 25.6072 4.53504L16.3623 0.888304C14.5822 0.185962 12.5635 1.06276 11.8617 2.8424L0.243346 32.2925C-0.460128 34.076 0.413268 36.0894 2.19744 36.7931ZM30.8965 50.4713C29.9007 51.6458 28.1351 51.7915 26.9602 50.7955C25.7775 49.7928 25.6434 48.0301 26.6337 46.8622L30.8366 41.929C31.8088 40.782 33.5792 40.593 34.7729 41.6048C35.9501 42.6028 36.0956 44.3637 35.0969 45.5411C35.0965 45.5416 35.0962 45.542 35.0958 45.5425L30.8965 50.4713ZM37.7486 56.2817C36.7506 57.4587 34.9904 57.6042 33.8125 56.6057C32.6299 55.603 32.4958 53.8403 33.4861 52.6724L37.689 47.7392C38.7328 46.5076 40.6674 46.4 41.8321 47.6094C41.8398 47.6173 41.8464 47.6262 41.8541 47.6343C42.8134 48.6545 42.8759 50.2586 41.9493 51.3515L37.7486 56.2817ZM44.6009 62.0917C43.5993 63.2732 41.8373 63.4098 40.6649 62.4157C39.4822 61.4131 39.3479 59.6505 40.3382 58.4825L44.5414 53.5492C45.5398 52.372 47.312 52.236 48.4776 53.2252C49.6521 54.2214 49.7974 55.987 48.8016 57.1615C48.8012 57.1619 48.8009 57.1624 48.8005 57.1628L44.6009 62.0917ZM55.6769 62.9417C55.6698 62.9503 55.6637 62.9599 55.6565 62.9682C54.9786 63.7639 53.1106 65.9564 51.4533 67.9016C50.4576 69.0763 48.692 69.2216 47.5172 68.2258C46.3425 67.2299 46.1973 65.4643 47.1905 64.2927L51.3937 59.3593C52.3951 58.1781 54.1587 58.0419 55.3298 59.0354C56.4821 60.0118 56.6586 61.7546 55.6769 62.9417ZM26.4697 11.8029L29.3735 13.018C30.9671 13.6847 32.7207 13.9786 34.4442 13.8678C35.7437 13.7842 36.1776 13.8436 42.9072 14.2217C44.289 14.2994 45.6551 14.5133 46.9894 14.8604C43.6646 17.8628 39.9308 20.8722 36.191 23.2737C33.7933 24.813 33.438 28.2005 35.5149 30.1743C38.3535 32.8716 44.7015 35.9723 55.3187 26.437C55.509 26.2662 55.789 26.2684 55.956 26.4431C61.0989 31.8113 68.3888 34.8098 76.2611 33.7035C77.1531 34.3304 75.426 33.0648 89.7706 43.6514H89.7708C91.306 44.7842 91.7353 47.0122 90.5334 48.5499C89.3917 50.0105 87.3289 50.2935 85.8383 49.1931C83.8247 47.7068 85.3114 48.838 78.2324 43.3836C77.4884 42.8106 76.422 42.949 75.849 43.6924C75.2765 44.4357 75.4147 45.5026 76.1578 46.0756L82.031 50.6009C83.0428 51.934 82.9223 53.8605 81.7244 55.0553C80.5468 56.2305 78.6083 56.3415 77.2152 55.3139C75.8683 54.3199 76.9873 55.1716 70.8098 50.4156C70.0663 49.8428 68.9992 49.982 68.4269 50.7255C67.8543 51.4691 67.993 52.536 68.7366 53.1085L73.9443 57.118C74.9278 58.3901 74.8796 60.2198 73.8057 61.4374C72.6502 62.7473 70.603 62.9297 69.1444 61.8531C66.8006 60.1235 67.9769 61.0166 63.4633 57.5233C62.7211 56.9489 61.654 57.0849 61.0795 57.8271C60.5051 58.5693 60.6411 59.6364 61.3833 60.2108L64.9935 63.0049C65.8148 64.312 65.654 66.0239 64.5739 67.1535C63.3951 68.3867 61.4311 68.5233 60.0051 67.4709L57.7209 65.7853L58.2456 65.1693C59.2919 63.9359 59.832 62.3384 59.6938 60.6575C59.5533 58.9549 58.7443 57.4755 57.5274 56.4433C56.2616 55.37 54.6084 54.8202 52.8498 55.0109C52.7574 53.3693 52.0045 51.7609 50.6751 50.6331C49.414 49.5639 47.8131 49.0501 46.1631 49.1849C46.108 49.1894 46.053 49.1947 45.9984 49.2008C45.9952 49.1464 45.9934 49.092 45.9889 49.0374C45.8808 47.7236 45.3688 46.5067 44.5271 45.525C44.5219 45.5189 44.5171 45.5128 44.5119 45.5067C43.1729 43.9577 41.1796 43.1751 39.1481 43.3935C39.0525 41.6873 38.279 40.1227 36.9703 39.013C34.366 36.8051 30.4517 37.1273 28.2466 39.7282L25.6858 42.734L24.1889 41.6819C24.1658 41.6656 24.1422 41.6497 24.1182 41.6347L16.5769 36.8785C22.2783 22.4268 20.1427 27.8401 26.4697 11.8029ZM3.40456 33.5399L15.0226 4.08985C15.0337 4.06175 15.0605 4.04476 15.0888 4.04476C15.0974 4.04476 15.1062 4.04635 15.1149 4.04975L24.3597 7.69693C24.3962 7.71121 24.4141 7.75267 24.3998 7.78892C23.8409 9.20584 13.1472 36.3124 12.7815 37.2392C12.7665 37.2761 12.7267 37.2936 12.6895 37.2791L3.44466 33.6319C3.40796 33.6174 3.38983 33.5764 3.40456 33.5399Z" fill="white"/>
</svg>
