<svg width="108" height="83" viewBox="0 0 108 83" fill="none" xmlns="http://www.w3.org/2000/svg">
<path d="M51.8679 31.9355H55.2211C55.657 31.9355 56.0896 31.9899 56.5071 32.0974C57.3458 32.313 58.2012 31.8081 58.4171 30.969C58.6329 30.13 58.1278 29.2748 57.2887 29.0589C56.6162 28.8859 55.9204 28.7981 55.2211 28.7981H51.8679C47.3049 28.7981 43.5928 32.5104 43.5928 37.0732V42.1033C43.5928 47.5908 48.0573 52.0553 53.5447 52.0553C59.0322 52.0553 63.4967 47.5908 63.4967 42.1033V37.0732C63.4967 36.3732 63.4089 35.6773 63.2357 35.0045C63.0196 34.1655 62.1646 33.6612 61.3252 33.8765C60.4863 34.0925 59.9814 34.948 60.1972 35.7869C60.3047 36.2042 60.3591 36.6369 60.3591 37.073V42.1031C60.3591 45.8606 57.3021 48.9177 53.5445 48.9177C49.787 48.9177 46.7299 45.8606 46.7299 42.1031V37.073C46.7299 34.2404 49.0349 31.9355 51.8679 31.9355Z" fill="white"/>
<path d="M68.9819 57.2899L62.6294 54.1136C62.2286 53.9132 61.7614 53.8938 61.3451 54.0603L53.5446 57.1805L45.744 54.0603C45.328 53.894 44.8605 53.913 44.4598 54.1136L38.1072 57.2899C35.2857 58.7006 33.5327 61.5368 33.5327 64.6916V80.6663C33.5327 81.5326 34.2351 82.235 35.1014 82.235C35.9677 82.235 36.6701 81.5326 36.6701 80.6663V64.6916C36.6701 62.7328 37.7583 60.9721 39.5103 60.0962L45.2328 57.2349L48.6227 58.5908V62.2233C48.6227 63.5489 49.1504 64.7529 50.0056 65.6389L48.6291 80.5213C48.5495 81.3841 49.184 82.1479 50.0466 82.2278C50.0958 82.2322 50.1445 82.2345 50.193 82.2345C50.9943 82.2345 51.678 81.6238 51.7531 80.8102L53.0196 67.1168C53.1921 67.1352 53.3672 67.145 53.5446 67.145C53.7211 67.145 53.8953 67.1352 54.0671 67.117L55.3358 80.8102C55.4111 81.6236 56.0949 82.2343 56.8959 82.2343C56.9442 82.2343 56.9934 82.232 57.0425 82.2276C57.9053 82.1477 58.5397 81.3835 58.4598 80.5209L57.081 65.6414C57.9377 64.7552 58.4665 63.5502 58.4665 62.2231V58.5906L61.8563 57.2347L67.5789 60.0959C69.3306 60.9719 70.4191 62.7326 70.4191 64.6914V80.6661C70.4191 81.5324 71.1214 82.2347 71.9878 82.2347C72.8541 82.2347 73.5564 81.5324 73.5564 80.6661V64.6914C73.5562 61.5366 71.8035 58.7006 68.9819 57.2899ZM55.3291 62.2233C55.3291 63.2074 54.5285 64.0078 53.5446 64.0078C52.5607 64.0078 51.76 63.2072 51.76 62.2233V59.8458L52.9621 60.3266C53.336 60.4764 53.7533 60.4764 54.1273 60.3266L55.3293 59.8458V62.2233H55.3291Z" fill="white"/>
<path d="M103.995 64.9534L97.7203 62.4433C97.2407 62.2515 96.6973 62.3079 96.2675 62.5945L92.1073 65.3677L87.9471 62.5945C87.5173 62.3081 86.9741 62.2515 86.4943 62.4433L80.2196 64.9532C78.3401 65.7049 77.1255 67.4988 77.1255 69.5231V80.666C77.1255 81.5323 77.8278 82.2347 78.6942 82.2347C79.5605 82.2347 80.2629 81.5323 80.2629 80.666V69.5231C80.2629 68.7891 80.7031 68.1386 81.3848 67.8661L86.8936 65.6624L90.5388 68.0924V80.666C90.5388 81.5323 91.2412 82.2347 92.1075 82.2347C92.9738 82.2347 93.6762 81.5323 93.6762 80.666V68.0924L97.3214 65.6624L102.83 67.8661C103.512 68.1386 103.952 68.7891 103.952 69.5231V80.666C103.952 81.5323 104.654 82.2347 105.521 82.2347C106.387 82.2347 107.089 81.5323 107.089 80.666V69.5231C107.089 67.499 105.875 65.7053 103.995 64.9534Z" fill="white"/>
<path d="M93.7839 45.5649H90.4307C87.7167 45.5649 85.5088 47.773 85.5088 50.4869V53.8401C85.5088 57.4786 88.4688 60.4386 92.1073 60.4386C95.7458 60.4386 98.7059 57.4786 98.7059 53.8401V50.4869C98.7059 47.7728 96.498 45.5649 93.7839 45.5649ZM95.5685 53.8401C95.5685 55.7487 94.0159 57.3012 92.1073 57.3012C90.1988 57.3012 88.6462 55.7487 88.6462 53.8401V50.4869C88.6462 49.5028 89.4468 48.7023 90.4307 48.7023H93.7839C94.768 48.7023 95.5685 49.503 95.5685 50.4869V53.8401Z" fill="white"/>
<path d="M26.8698 64.9534L20.5948 62.4433C20.1152 62.2515 19.5718 62.3079 19.142 62.5945L14.9818 65.3677L10.8217 62.5945C10.3918 62.3081 9.84865 62.2515 9.36884 62.4433L3.09387 64.9534C1.21437 65.7053 0 67.499 0 69.5233V80.6662C0 81.5325 0.702354 82.2349 1.56869 82.2349C2.43502 82.2349 3.13738 81.5325 3.13738 80.6662V69.5233C3.13738 68.7893 3.57766 68.1389 4.25909 67.8663L9.76791 65.6626L13.4131 68.0926V80.6662C13.4131 81.5325 14.1155 82.2349 14.9818 82.2349C15.8481 82.2349 16.5505 81.5325 16.5505 80.6662V68.0926L20.1957 65.6626L25.7045 67.8663C26.386 68.1389 26.8262 68.7891 26.8262 69.5231V80.666C26.8262 81.5323 27.5286 82.2347 28.3949 82.2347C29.2613 82.2347 29.9636 81.5323 29.9636 80.666V69.5231C29.9636 67.499 28.7493 65.7051 26.8698 64.9534Z" fill="white"/>
<path d="M16.6584 45.5649H13.3052C10.5912 45.5649 8.3833 47.773 8.3833 50.4869V53.8401C8.3833 57.4786 11.3433 60.4386 14.9818 60.4386C18.6204 60.4386 21.5804 57.4786 21.5804 53.8401V50.4869C21.5804 47.7728 19.3725 45.5649 16.6584 45.5649ZM18.443 53.8401C18.443 55.7487 16.8904 57.3012 14.9818 57.3012C13.0733 57.3012 11.5207 55.7487 11.5207 53.8401V50.4869C11.5207 49.5028 12.3213 48.7023 13.3052 48.7023H16.6584C17.6425 48.7023 18.443 49.503 18.443 50.4869V53.8401Z" fill="white"/>
<path d="M41.7811 12.8414L46.2991 16.1237L44.5735 21.4351C44.1849 22.6312 44.6074 23.9314 45.6248 24.6705C46.1334 25.0401 46.7295 25.2248 47.3256 25.2248C47.9217 25.2248 48.5181 25.0399 49.0265 24.6705L53.5446 21.388L58.0626 24.6703C59.0799 25.4097 60.447 25.4097 61.4646 24.6705C62.4819 23.9314 62.9044 22.6312 62.5158 21.4351L60.7902 16.1237L65.3083 12.8412C66.3256 12.102 66.7481 10.8017 66.3595 9.60568C65.9709 8.40971 64.8648 7.60613 63.6072 7.60613H58.0226L56.2969 2.29497C55.9083 1.099 54.8022 0.29541 53.5446 0.29541C52.2869 0.29541 51.1811 1.099 50.7922 2.29517L49.0665 7.60634H43.4819C42.2243 7.60634 41.1184 8.40992 40.7296 9.60589C40.3412 10.8019 40.7637 12.102 41.7811 12.8414ZM50.2064 10.7437C50.8859 10.7437 51.4883 10.3062 51.6983 9.65964L53.5446 3.97723L55.391 9.65964C55.601 10.3059 56.2034 10.7437 56.8829 10.7437H62.8578L58.0241 14.2555C57.4742 14.655 57.2442 15.363 57.4541 16.0093L59.3004 21.6917L54.4667 18.1797C53.9171 17.7804 53.1725 17.7804 52.6228 18.1797L47.7891 21.6917L49.6354 16.0093C49.8454 15.363 49.6153 14.655 49.0654 14.2555L44.2318 10.7437H50.2064Z" fill="white"/>
<path d="M83.28 31.6024L86.3436 33.8284L85.1733 37.4301C84.8322 38.4797 85.203 39.6207 86.0957 40.2695C86.9886 40.9183 88.1883 40.9183 89.0812 40.2695L92.145 38.0436L95.209 40.2695C95.6553 40.5939 96.1784 40.756 96.7017 40.756C97.2248 40.756 97.7481 40.5939 98.1945 40.2695C99.0874 39.6207 99.458 38.4797 99.1169 37.4301L97.9466 33.8284L101.01 31.6026C101.903 30.9538 102.274 29.8128 101.933 28.7632C101.592 27.7137 100.621 27.0084 99.5176 27.0084H95.7306L94.5603 23.4067C94.2194 22.3571 93.2487 21.6519 92.145 21.6519C91.0415 21.6519 90.0708 22.3571 89.7298 23.4067L88.5596 27.0084H84.7726C83.6688 27.0084 82.6983 27.7137 82.3572 28.7632C82.0161 29.8128 82.3869 30.9538 83.28 31.6024ZM89.6993 30.1456C90.3789 30.1456 90.9812 29.708 91.1912 29.0615L92.1452 26.1255L93.0992 29.0615C93.3092 29.7078 93.9115 30.1456 94.5911 30.1456H97.6781L95.1807 31.96C94.6308 32.3595 94.4008 33.0675 94.6108 33.7138L95.5647 36.6498L93.0674 34.8353C92.5177 34.436 91.7731 34.4358 91.2234 34.8353L88.7261 36.6498L89.68 33.7136C89.89 33.0673 89.66 32.3593 89.1101 31.9598L86.6127 30.1454H89.6993V30.1456Z" fill="white"/>
<path d="M6.15426 31.6023L9.21802 33.8282L8.04777 37.4299C7.70664 38.4795 8.07748 39.6206 8.97037 40.2692C9.41693 40.5936 9.94003 40.7559 10.4631 40.7557C10.9862 40.7557 11.5093 40.5936 11.9557 40.2692L15.0194 38.0432L18.0832 40.2692C18.9763 40.918 20.1758 40.9178 21.0687 40.2692C21.9616 39.6204 22.3323 38.4795 21.9911 37.4299L20.8209 33.8282L23.8844 31.6023C24.7773 30.9535 25.1482 29.8126 24.807 28.763C24.4659 27.7134 23.4954 27.0082 22.3917 27.0082H18.6053L17.435 23.4067C17.0941 22.3569 16.1234 21.6516 15.0199 21.6516C13.9163 21.6516 12.9456 22.3569 12.6045 23.4065L11.4343 27.0082H7.64703C6.54351 27.0082 5.5728 27.7134 5.23187 28.763C4.89074 29.8126 5.26136 30.9535 6.15426 31.6023ZM12.5738 30.1455C13.2533 30.1455 13.8557 29.708 14.0657 29.0615L15.0197 26.1255L15.9736 29.0615C16.1836 29.7078 16.786 30.1453 17.4656 30.1453H20.5525L18.0552 31.9598C17.5053 32.3593 17.2752 33.0673 17.4852 33.7136L18.4392 36.6497L15.9418 34.8353C15.667 34.6355 15.3434 34.5356 15.0199 34.5356C14.6963 34.5356 14.3727 34.6355 14.0979 34.8351L11.6005 36.6495L12.5545 33.7136C12.7645 33.0673 12.5344 32.3593 11.9846 31.9598L9.4872 30.1453H12.5738V30.1455Z" fill="white"/>
</svg>
