<svg width="86" height="86" viewBox="0 0 86 86" fill="none" xmlns="http://www.w3.org/2000/svg">
<path d="M83.1333 0H2.86672C2.10108 0.00681515 1.36938 0.316894 0.832015 0.862264C0.294651 1.40763 -0.00453147 2.1438 5.18952e-05 2.90937V50.1186C-0.00453147 50.8842 0.294651 51.6204 0.832015 52.1657C1.36938 52.7111 2.10108 53.0212 2.86672 53.028H32.4277L36.6933 59.0144C36.0321 59.875 35.0659 60.449 33.9938 60.6183C32.9218 60.7877 31.8257 60.5393 30.9313 59.9245C29.3813 58.8666 27.6378 58.1248 25.8007 57.7414C23.9636 57.3579 22.0689 57.3405 20.225 57.6901C18.3811 58.0397 16.6243 58.7493 15.0551 59.7786C13.4858 60.8078 12.1349 62.1363 11.0797 63.6881C9.98177 65.3081 9.22617 67.1351 8.85919 69.0574C8.4922 70.9796 8.52157 72.9565 8.94547 74.867C9.36526 76.781 10.177 78.5873 11.3295 80.1721C12.482 81.757 13.9504 83.0859 15.642 84.0752C17.7787 85.3362 20.2158 85.9981 22.6969 85.9914C25.1174 85.9767 27.4977 85.3713 29.6312 84.2279C31.7646 83.0845 33.5866 81.4376 34.9389 79.4302L42.8638 67.7899L51.1772 79.6223C52.5392 81.5793 54.3517 83.1803 56.4621 84.2902C58.5724 85.4001 60.9187 85.9865 63.3031 86C65.8563 86.0056 68.3611 85.3041 70.54 83.9734C72.2165 82.9594 73.6647 81.6092 74.7936 80.0078C75.9224 78.4065 76.7074 76.5888 77.099 74.6692C77.4955 72.7535 77.4966 70.7771 77.1023 68.861C76.7079 66.9449 75.9264 65.1295 74.8056 63.5261C73.7284 61.9886 72.3583 60.6788 70.7739 59.6717C69.1895 58.6646 67.4219 57.98 65.5725 57.6571C63.723 57.3343 61.828 57.3795 59.996 57.7902C58.1641 58.201 56.4312 58.9691 54.8966 60.0506C54.4376 60.3745 53.9192 60.6045 53.3711 60.7277C52.823 60.8509 52.256 60.8648 51.7025 60.7685C51.149 60.6723 50.62 60.4678 50.1456 60.1668C49.6713 59.8658 49.261 59.4742 48.9383 59.0144L48.8896 58.9457L52.9287 53.028H83.1333C83.8989 53.0212 84.6306 52.7111 85.168 52.1657C85.7053 51.6204 86.0045 50.8842 85.9999 50.1186V2.90937C86.0045 2.1438 85.7053 1.40763 85.168 0.862264C84.6306 0.316894 83.8989 0.00681515 83.1333 0V0ZM71.4832 21.687C71.3285 19.9822 70.7554 18.3419 69.8148 16.9116C69.5781 16.5587 69.2582 16.2694 68.8832 16.0694C68.5082 15.8695 68.0898 15.7649 67.6648 15.7651H67.6533C67.218 15.7642 66.7891 15.87 66.404 16.0731C66.019 16.2762 65.6896 16.5705 65.4445 16.9303L47.654 42.9957H17.1011C16.7892 40.8537 15.7927 38.8701 14.2606 37.341C12.7284 35.8118 10.7428 34.8192 8.60004 34.5112L8.61007 17.098C10.9376 16.7541 13.0714 15.6067 14.6415 13.8546C15.9662 12.3884 16.8179 10.5569 17.0854 8.59914H68.8989C69.2108 10.7411 70.2073 12.7247 71.7394 14.2539C73.2716 15.783 75.2572 16.7757 77.4 17.0836L77.3899 34.4969C75.0624 34.8407 72.9286 35.9881 71.3585 37.7402C70.0338 39.2064 69.1821 41.038 68.9146 42.9957H59.78L69.7273 28.4273C71.069 26.4487 71.689 24.0687 71.4832 21.687ZM67.6261 18.8206C68.3444 20.0411 68.7007 21.4407 68.6533 22.856C68.6058 24.2714 68.1566 25.644 67.358 26.8135L47.3 56.181C46.9001 55.4289 46.3062 54.7975 45.58 54.3523C45.0313 54.0272 44.424 53.8134 43.7926 53.7231L67.6261 18.8206ZM38.8863 55.8414L38.8763 55.8557L38.4305 56.5121L35.948 53.028H40.8056L38.8863 55.8414ZM32.5682 77.8222C27.0513 85.9269 13.9535 84.1483 11.7433 74.2392C11.2383 72.003 11.4182 69.6665 12.2596 67.5339C13.101 65.4013 14.565 63.5714 16.4609 62.2823C18.3569 60.9931 20.597 60.3045 22.8898 60.306C25.1825 60.3075 27.4217 60.9991 29.316 62.2907C30.0912 62.8204 30.9634 63.1918 31.8824 63.3838C32.8015 63.5758 33.7494 63.5846 34.6719 63.4097C35.5944 63.2347 36.4733 62.8795 37.2582 62.3643C38.0431 61.8492 38.7187 61.1842 39.2461 60.4075L41.2528 57.4551C41.5675 57.0162 42.0325 56.7082 42.5595 56.5898C43.0865 56.4715 43.6386 56.5509 44.1108 56.8131C44.3596 56.9904 44.571 57.2151 44.7329 57.4741C44.8949 57.7332 45.0042 58.0216 45.0546 58.3229C45.1051 58.6242 45.0957 58.9325 45.0269 59.2302C44.9582 59.5279 44.8315 59.8091 44.6541 60.0578L32.5682 77.8222ZM51.2015 63.5964C52.1261 63.7593 53.0739 63.7372 53.9899 63.5313C54.9059 63.3254 55.7719 62.9397 56.5378 62.3968C57.7627 61.5281 59.148 60.9113 60.6133 60.5824C62.0785 60.2534 63.5946 60.2188 65.0733 60.4806C68.0859 61.0876 70.7399 62.8524 72.4647 65.3955C74.1895 67.9387 74.8474 71.0571 74.2968 74.0801C72.2228 84.0652 59.1823 86.0186 53.5278 77.9698L44.5939 65.2531L47.0305 61.6701L47.2183 61.395C48.2692 62.5485 49.6722 63.322 51.2087 63.5949L51.2015 63.5964ZM83.1333 50.1616H54.8866L57.8221 45.8621H68.9146C69.6045 45.8646 70.2717 45.6157 70.7914 45.162C71.3111 44.7083 71.6477 44.0808 71.7383 43.397C71.9395 42.0016 72.5512 40.6975 73.4956 39.6506C74.6151 38.4011 76.1361 37.5819 77.7956 37.3346C78.478 37.2395 79.1034 36.9018 79.5573 36.3833C80.011 35.8648 80.2629 35.2002 80.2666 34.5112V17.0836C80.263 16.397 80.0131 15.7345 79.5622 15.2166C79.1113 14.6987 78.4895 14.3598 77.8099 14.2617C76.1446 14.0164 74.6177 13.196 73.4941 11.9428C72.5505 10.8967 71.9394 9.5936 71.7383 8.19928C71.648 7.51516 71.3116 6.88737 70.7918 6.43338C70.2721 5.97939 69.6047 5.73031 68.9146 5.73276H17.0854C16.3955 5.73027 15.7283 5.97914 15.2086 6.43284C14.6889 6.88654 14.3523 7.51399 14.2617 8.19784C14.0608 9.59334 13.4491 10.8975 12.5044 11.9442C11.3849 13.1937 9.86392 14.0129 8.20444 14.2602C7.52195 14.3553 6.89655 14.693 6.44275 15.2115C5.98895 15.73 5.73712 16.3946 5.73338 17.0836V34.5112C5.73697 35.1978 5.98693 35.8603 6.4378 36.3782C6.88866 36.8961 7.51047 37.235 8.19011 37.3332C9.85538 37.5784 11.3823 38.3989 12.5059 39.6521C13.4492 40.6983 14.0604 42.0013 14.2617 43.3955C14.352 44.0797 14.6884 44.7075 15.2082 45.1614C15.7279 45.6154 16.3953 45.8645 17.0854 45.8621H45.6975L42.7635 50.1616L2.86672 50.1186V2.86638L83.1333 2.90937V50.1616Z" fill="black"/>
<path d="M22.8961 63.104C21.2394 63.104 19.6199 63.6117 18.2423 64.5628C16.8648 65.5139 15.7911 66.8658 15.1571 68.4474C14.5231 70.029 14.3572 71.7695 14.6805 73.4485C15.0037 75.1276 15.8015 76.6699 16.973 77.8805C18.1445 79.091 19.637 79.9154 21.2619 80.2494C22.8868 80.5834 24.5711 80.4119 26.1017 79.7568C27.6323 79.1017 28.9406 77.9922 29.861 76.5688C30.7815 75.1453 31.2727 73.4718 31.2727 71.7598C31.2705 69.4649 30.3873 67.2646 28.8168 65.6418C27.2464 64.019 25.1171 63.1063 22.8961 63.104ZM22.8961 77.5304C21.7916 77.5304 20.7119 77.192 19.7936 76.5579C18.8752 75.9238 18.1595 75.0226 17.7368 73.9681C17.3141 72.9137 17.2035 71.7534 17.419 70.6341C17.6345 69.5147 18.1664 68.4865 18.9473 67.6794C19.7283 66.8724 20.7234 66.3228 21.8067 66.1002C22.8899 65.8775 24.0128 65.9918 25.0332 66.4285C26.0536 66.8653 26.9258 67.6049 27.5394 68.5539C28.153 69.5029 28.4805 70.6185 28.4805 71.7598C28.4805 73.2903 27.8922 74.7581 26.8449 75.8402C25.7976 76.9224 24.3772 77.5304 22.8961 77.5304Z" fill="black"/>
<path d="M63.1039 80.4157C64.7606 80.4157 66.3801 79.908 67.7577 78.9569C69.1352 78.0058 70.2088 76.6539 70.8428 75.0723C71.4769 73.4906 71.6427 71.7502 71.3195 70.0712C70.9963 68.3921 70.1985 66.8498 69.027 65.6392C67.8555 64.4287 66.363 63.6043 64.7381 63.2703C63.1131 62.9363 61.4289 63.1078 59.8983 63.7629C58.3676 64.418 57.0594 65.5275 56.1389 66.9509C55.2185 68.3744 54.7272 70.0479 54.7272 71.7599C54.7295 74.0548 55.6127 76.2551 57.1831 77.8779C58.7536 79.5007 60.8829 80.4134 63.1039 80.4157ZM63.1039 65.9893C64.2083 65.9893 65.288 66.3277 66.2064 66.9618C67.1247 67.5959 67.8405 68.4971 68.2632 69.5516C68.6859 70.606 68.7964 71.7663 68.581 72.8856C68.3655 74.005 67.8336 75.0332 67.0526 75.8403C66.2716 76.6473 65.2766 77.1969 64.1933 77.4195C63.11 77.6422 61.9872 77.5279 60.9668 77.0912C59.9464 76.6544 59.0742 75.9148 58.4606 74.9658C57.847 74.0168 57.5194 72.9012 57.5194 71.7599C57.5194 70.2294 58.1078 68.7616 59.1551 67.6794C60.2024 66.5973 61.6228 65.9893 63.1039 65.9893Z" fill="black"/>
<path d="M17.3117 20.104C16.2072 20.104 15.1275 20.4315 14.2091 21.0451C13.2908 21.6588 12.575 22.5309 12.1523 23.5514C11.7297 24.5718 11.6191 25.6946 11.8345 26.7779C12.05 27.8612 12.5819 28.8562 13.3629 29.6372C14.1439 30.4182 15.1389 30.9501 16.2222 31.1655C17.3055 31.381 18.4283 31.2704 19.4487 30.8477C20.4691 30.4251 21.3413 29.7093 21.9549 28.791C22.5685 27.8726 22.8961 26.7929 22.8961 25.6884C22.8961 24.2073 22.3077 22.7869 21.2604 21.7396C20.2131 20.6924 18.7927 20.104 17.3117 20.104ZM17.3117 28.4806C16.7594 28.4806 16.2196 28.3169 15.7604 28.0101C15.3012 27.7032 14.9433 27.2672 14.732 26.757C14.5207 26.2467 14.4654 25.6853 14.5731 25.1437C14.6808 24.6021 14.9468 24.1045 15.3373 23.714C15.7278 23.3235 16.2253 23.0576 16.7669 22.9499C17.3086 22.8421 17.87 22.8974 18.3802 23.1088C18.8904 23.3201 19.3265 23.678 19.6333 24.1371C19.9401 24.5963 20.1039 25.1362 20.1039 25.6884C20.1039 26.429 19.8097 27.1392 19.286 27.6628C18.7624 28.1864 18.0522 28.4806 17.3117 28.4806Z" fill="black"/>
<path d="M43.1639 12.8442C39.714 12.8442 36.4053 14.1975 33.9658 16.6062C31.5263 19.015 30.1559 22.2819 30.1559 25.6884C30.1559 29.0949 31.5263 32.3618 33.9658 34.7706C36.4053 37.1793 39.714 38.5326 43.1639 38.5326C43.5473 38.5326 43.9149 38.3822 44.1859 38.1146C44.457 37.8469 44.6093 37.4839 44.6093 37.1054C44.6093 36.7269 44.457 36.3639 44.1859 36.0963C43.9149 35.8286 43.5473 35.6783 43.1639 35.6783C41.3803 35.6781 39.6283 35.2124 38.0857 34.3282C36.5431 33.4441 35.2646 32.1729 34.3798 30.6437C33.4951 29.1144 33.0355 27.3814 33.0477 25.6202C33.0599 23.859 33.5434 22.1324 34.4492 20.6152C35.355 19.098 36.6509 17.8442 38.2056 16.9809C39.7603 16.1176 41.5185 15.6755 43.302 15.6994C45.0856 15.7233 46.831 16.2123 48.3614 17.1169C49.8918 18.0215 51.1528 19.3095 52.0166 20.8504C52.2026 21.1816 52.5141 21.4263 52.8827 21.5307C53.2514 21.6351 53.6469 21.5906 53.9823 21.407C54.3177 21.2234 54.5655 20.9158 54.6713 20.5518C54.777 20.1878 54.7319 19.7973 54.546 19.4661C53.4192 17.4604 51.7697 15.7888 49.7684 14.6244C47.7671 13.4601 45.4868 12.8455 43.1639 12.8442Z" fill="black"/>
</svg>
