<svg width="86" height="86" viewBox="0 0 86 86" fill="none" xmlns="http://www.w3.org/2000/svg">
<path d="M84.5668 14.3335H50.1668C49.3752 14.3335 48.7334 14.9753 48.7334 15.7668V28.6669C48.734 29.4584 49.3763 30.0997 50.1678 30.0991C50.3214 30.0989 50.474 30.0742 50.6197 30.0257L52.4214 29.4251C54.3775 28.7848 56.4822 29.8515 57.1224 31.8077C57.7625 33.7638 56.696 35.8685 54.7398 36.5086C53.9866 36.7552 53.1744 36.7552 52.4212 36.5086L50.6195 35.9081C49.8684 35.658 49.0568 36.064 48.8067 36.815C48.7581 36.9607 48.7334 37.1133 48.7332 37.2669V48.7336H37.2665C36.475 48.7341 35.8337 49.3764 35.8343 50.168C35.8345 50.3215 35.8592 50.4742 35.9077 50.6199L36.5083 52.4216C37.1487 54.3777 36.0819 56.4824 34.1257 57.1225C32.1696 57.7629 30.0649 56.6961 29.4248 54.74C29.1782 53.9868 29.1782 53.1746 29.4248 52.4214L30.0253 50.6197C30.2754 49.8686 29.8695 49.057 29.1184 48.8069C28.9727 48.7583 28.8201 48.7336 28.6665 48.7334H15.7667C14.9751 48.7334 14.3333 49.3752 14.3333 50.1667V84.5668C14.3333 85.3584 14.9751 86.0002 15.7667 86.0002H84.5668C85.3584 86.0002 86.0002 85.3584 86.0002 84.5668V15.7668C86.0002 14.9753 85.3584 14.3335 84.5668 14.3335ZM48.8069 71.2151C48.7583 71.3608 48.7336 71.5134 48.7334 71.667V83.1337H17.2V51.6003H26.6787C25.5834 55.073 27.5109 58.7763 30.9837 59.8713C34.4565 60.9666 38.1597 59.0391 39.2548 55.5663C39.6618 54.2756 39.6618 52.8908 39.2548 51.6001H48.7334V63.0668C48.734 63.8583 49.3763 64.4996 50.1678 64.499C50.3214 64.4989 50.474 64.4741 50.6197 64.4256L52.4214 63.825C54.3775 63.1848 56.4822 64.2514 57.1224 66.2076C57.7625 68.1637 56.696 70.2684 54.7398 70.9086C53.9866 71.1551 53.1744 71.1551 52.4212 70.9086L50.6195 70.308C49.8686 70.058 49.057 70.464 48.8069 71.2151ZM83.1335 83.1337H51.6001V73.655C55.0729 74.7503 58.7761 72.8228 59.8712 69.35C60.9664 65.8772 59.0389 62.174 55.5661 61.0789C54.2754 60.6718 52.8906 60.6718 51.5999 61.0789V51.6003H63.0666C63.8582 51.5997 64.4994 50.9574 64.4989 50.1658C64.4987 50.0123 64.474 49.8596 64.4254 49.714L63.8248 47.9123C63.1847 45.9561 64.2513 43.8515 66.2074 43.2113C68.1635 42.5711 70.2682 43.6377 70.9084 45.5939C71.1549 46.3471 71.1549 47.1592 70.9084 47.9125L70.3078 49.7142C70.0577 50.4652 70.4637 51.2769 71.2148 51.527C71.3604 51.5755 71.5131 51.6003 71.6666 51.6004H83.1333V83.1337H83.1335ZM83.1335 48.7336H73.6548C74.7501 45.2608 72.8226 41.5576 69.3498 40.4625C65.877 39.3673 62.1738 41.2947 61.0787 44.7675C60.6717 46.0583 60.6717 47.443 61.0787 48.7338H51.6001V39.2551C53.5908 39.9003 55.7702 39.5522 57.461 38.3191C60.4255 36.2046 61.1146 32.0872 59 29.1227C57.3302 26.7817 54.3358 25.7928 51.6001 26.679V17.2002H83.1335V48.7336Z" fill="black"/>
<path d="M41.233 12.3453C39.9422 11.9383 38.5575 11.9383 37.2668 12.3453V1.43334C37.2668 0.641776 36.625 0 35.8334 0H1.43334C0.641776 0 0 0.641776 0 1.43334V35.8334C0 36.625 0.641776 37.2668 1.43334 37.2668H12.3453C11.2501 40.7395 13.1776 44.4428 16.6504 45.5378C20.1231 46.6329 23.8264 44.7056 24.9214 41.2328C25.3285 39.9421 25.3285 38.5573 24.9214 37.2666H35.8334C36.625 37.2666 37.2668 36.6248 37.2668 35.8332V24.9212C40.7395 26.0165 44.4427 24.089 45.5378 20.6162C46.6331 17.1436 44.7058 13.4406 41.233 12.3453ZM40.4067 22.1751C39.6534 22.4217 38.8413 22.4217 38.0881 22.1751L36.2863 21.5746C35.5353 21.3245 34.7237 21.7305 34.4735 22.4815C34.425 22.6272 34.4003 22.7798 34.4001 22.9334V34.4001H22.9334C22.1418 34.4006 21.5006 35.0429 21.5011 35.8345C21.5013 35.988 21.526 36.1407 21.5746 36.2864L22.1751 38.0881C22.8155 40.0442 21.7487 42.1489 19.7926 42.789C17.8364 43.4292 15.7318 42.3626 15.0916 40.4065C14.8451 39.6533 14.8451 38.8411 15.0916 38.0879L15.6922 36.2862C15.9423 35.5351 15.5363 34.7235 14.7852 34.4734C14.6396 34.4248 14.4869 34.4001 14.3334 34.3999H2.86667V2.86667H34.4001V14.3334C34.4006 15.1249 35.0429 15.7662 35.8345 15.7656C35.988 15.7654 36.1407 15.7407 36.2863 15.6922L38.0881 15.0916C40.0442 14.4514 42.1489 15.518 42.789 17.4742C43.4294 19.4301 42.3626 21.535 40.4067 22.1751Z" fill="black"/>
</svg>
