<svg width="83" height="80" viewBox="0 0 83 80" fill="none" xmlns="http://www.w3.org/2000/svg">
<path d="M82.8399 43.6689C82.0947 36.1731 78.746 29.1065 73.4102 23.7706C68.8503 19.2109 63.2692 16.2807 57.3965 14.9778V10.8589C59.7951 10.2622 61.578 8.09099 61.578 5.51034C61.578 2.47106 59.1055 -0.00146484 56.0662 -0.00146484H44.3942C41.3549 -0.00146484 38.8824 2.47106 38.8824 5.51034C38.8824 8.09083 40.6653 10.262 43.0637 10.8589V14.9893C37.209 16.2977 31.6463 19.2239 27.0994 23.7708C26.1044 24.7658 25.1868 25.8097 24.3469 26.8945C24.3062 26.8914 24.2655 26.8883 24.224 26.8883H12.6718C11.7766 26.8883 11.0507 27.6141 11.0507 28.5095C11.0507 29.4048 11.7766 30.1306 12.6718 30.1306H22.1411C20.9525 32.1205 19.9941 34.2103 19.2646 36.3615H1.62112C0.725937 36.3615 0 37.0873 0 37.9826C0 38.878 0.725937 39.6037 1.62112 39.6037H18.3485C17.8813 41.6546 17.6131 43.7418 17.5439 45.8348H10.3752C9.47997 45.8348 8.75404 46.5606 8.75404 47.456C8.75404 48.3513 9.47997 49.0771 10.3752 49.0771H17.5956C17.7324 51.1754 18.0698 53.2628 18.6078 55.3082H8.10559C7.21041 55.3082 6.48447 56.0339 6.48447 56.9293C6.48447 57.8246 7.21041 58.5504 8.10559 58.5504H19.6424C21.2328 62.7574 23.7181 66.7004 27.0994 70.0817C32.4404 75.4227 39.5143 78.7722 47.0178 79.5136C48.0887 79.6193 49.1604 79.6716 50.2307 79.6716C56.5566 79.6716 62.8021 77.8409 68.1015 74.3899C68.8518 73.9013 69.064 72.897 68.5754 72.1467C68.0868 71.3965 67.0825 71.1843 66.3323 71.6729C54.732 79.2268 39.1964 77.5935 29.392 67.7892C17.8882 56.2854 17.8882 37.5675 29.392 26.0635C40.8956 14.5599 59.6135 14.5599 71.1175 26.0635C80.9089 35.8551 82.5511 51.3774 75.0221 62.972C74.5345 63.7229 74.748 64.727 75.4987 65.2145C76.2499 65.7021 77.2537 65.4886 77.7412 64.7377C81.7638 58.5426 83.5746 51.0603 82.8399 43.6689ZM42.1246 5.5105C42.1246 4.259 43.1427 3.24093 44.3942 3.24093H56.0662C57.3177 3.24093 58.3358 4.259 58.3358 5.5105C58.3358 6.762 57.3177 7.78006 56.0662 7.78006H55.7754H44.6848H44.3942C43.1427 7.78006 42.1246 6.76184 42.1246 5.5105ZM46.3059 14.432V11.0223H54.1543V14.4262C51.5481 14.1162 48.9116 14.1181 46.3059 14.432Z" fill="black"/>
<path d="M72.2646 67.314C71.8366 67.314 71.42 67.4874 71.1186 67.7889C70.8155 68.0905 70.6435 68.5087 70.6435 68.9351C70.6435 69.3614 70.8155 69.7796 71.1186 70.0812C71.42 70.3843 71.8368 70.5562 72.2646 70.5562C72.6909 70.5562 73.1076 70.3843 73.4107 70.0812C73.7122 69.7796 73.8857 69.3614 73.8857 68.9351C73.8857 68.5087 73.7124 68.0905 73.4107 67.7889C73.1076 67.4874 72.6908 67.314 72.2646 67.314Z" fill="black"/>
<path d="M50.2548 21.7783C36.3881 21.7783 25.1066 33.0597 25.1066 46.9266C25.1066 60.7934 36.3881 72.0748 50.2548 72.0748C64.1215 72.0748 75.4031 60.7934 75.4031 46.9266C75.4031 33.0597 64.1215 21.7783 50.2548 21.7783ZM50.2548 68.8326C38.1757 68.8326 28.3488 59.0055 28.3488 46.9266C28.3488 34.8476 38.1757 25.0206 50.2548 25.0206C62.3339 25.0206 72.1608 34.8476 72.1608 46.9266C72.1608 59.0055 62.3339 68.8326 50.2548 68.8326Z" fill="black"/>
<path d="M60.5094 34.3791L52.48 42.4083C51.8085 42.0763 51.0532 41.8887 50.2548 41.8887C49.4563 41.8887 48.7011 42.0763 48.0297 42.4083L44.4361 38.8148C43.8029 38.1817 42.7768 38.1817 42.1434 38.8148C41.5103 39.4478 41.5103 40.4743 42.1434 41.1074L45.7369 44.7009C45.4048 45.3724 45.2174 46.1276 45.2174 46.926C45.2174 49.7037 47.477 51.9635 50.2548 51.9635C53.0326 51.9635 55.2923 49.7037 55.2923 46.926C55.2923 46.1276 55.1047 45.3724 54.7727 44.7009L62.5664 36.9072L62.802 36.6717C63.435 36.0386 63.435 35.0121 62.802 34.3791C62.1689 33.746 61.1427 33.746 60.5094 34.3791ZM50.2548 48.7214C49.265 48.7214 48.4596 47.9161 48.4596 46.9262C48.4596 45.9364 49.265 45.131 50.2548 45.131C51.2447 45.131 52.0501 45.9364 52.0501 46.9262C52.0501 47.9161 51.2447 48.7214 50.2548 48.7214Z" fill="black"/>
<path d="M67.5876 45.3252H66.0857C65.1905 45.3252 64.4646 46.051 64.4646 46.9463C64.4646 47.8416 65.1905 48.5674 66.0857 48.5674H67.5876C68.4828 48.5674 69.2087 47.8416 69.2087 46.9463C69.2087 46.051 68.4828 45.3252 67.5876 45.3252Z" fill="black"/>
<path d="M34.4238 45.2852H32.922C32.0268 45.2852 31.3009 46.0109 31.3009 46.9062C31.3009 47.8016 32.0268 48.5273 32.922 48.5273H34.4238C35.3189 48.5273 36.0449 47.8016 36.0449 46.9062C36.0449 46.0109 35.3189 45.2852 34.4238 45.2852Z" fill="black"/>
<path d="M50.2746 32.7161C51.1698 32.7161 51.8957 31.9904 51.8957 31.095V29.5933C51.8957 28.6979 51.1698 27.9722 50.2746 27.9722C49.3794 27.9722 48.6535 28.6979 48.6535 29.5933V31.095C48.6535 31.9904 49.3794 32.7161 50.2746 32.7161Z" fill="black"/>
<path d="M50.235 61.1362C49.3398 61.1362 48.6139 61.862 48.6139 62.7573V64.2591C48.6139 65.1544 49.3398 65.8802 50.235 65.8802C51.1302 65.8802 51.8561 65.1544 51.8561 64.2591V62.7573C51.8561 61.862 51.1302 61.1362 50.235 61.1362Z" fill="black"/>
<path d="M1.62109 55.3076C1.19475 55.3076 0.776504 55.4811 0.47498 55.7826C0.173457 56.0841 0 56.5024 0 56.9287C0 57.3567 0.173295 57.7733 0.47498 58.0748C0.776666 58.3763 1.19475 58.5498 1.62109 58.5498C2.04744 58.5498 2.46568 58.3763 2.76704 58.0748C3.06857 57.7733 3.24219 57.3551 3.24219 56.9287C3.24219 56.5024 3.06873 56.0841 2.76704 55.7826C2.46568 55.4811 2.04744 55.3076 1.62109 55.3076Z" fill="black"/>
</svg>
