<svg width="90" height="90" viewBox="0 0 90 90" fill="none" xmlns="http://www.w3.org/2000/svg">
<path d="M4.48566 76.7983H86.323C87.3914 76.7983 88.2578 77.6646 88.2578 78.7326V87.705H2.55084V78.7326C2.55084 77.6646 3.41732 76.7983 4.48566 76.7983Z" stroke="black" stroke-width="3.5" stroke-miterlimit="10"/>
<path d="M13.6626 52.0835H34.4543V76.7981H12.4439V53.3019C12.4439 52.6299 12.9904 52.0835 13.6626 52.0835Z" stroke="black" stroke-width="3.5" stroke-miterlimit="10"/>
<path d="M35.6178 30.3159H55.1907C55.8629 30.3159 56.4095 30.8623 56.4095 31.5343V76.7981H34.3991V31.5343C34.3991 30.8623 34.9456 30.3159 35.6178 30.3159V30.3159Z" stroke="black" stroke-width="3.5" stroke-miterlimit="10"/>
<path d="M56.4095 42.0352H77.2011C77.8734 42.0352 78.4199 42.5815 78.4199 43.2536V76.7959H56.4095V42.0352Z" stroke="black" stroke-width="3.5" stroke-miterlimit="10"/>
<path d="M46.2708 2.53829L49.0588 8.18674C49.1997 8.4723 49.472 8.67029 49.7862 8.71598L56.0211 9.62217C56.8133 9.73639 57.1294 10.7111 56.5562 11.2708L52.0448 15.6666C51.8163 15.8893 51.7134 16.2092 51.7668 16.5214L52.8313 22.7295C52.9665 23.5196 52.1381 24.1212 51.4297 23.748L45.8538 20.8182C45.5719 20.6697 45.2368 20.6697 44.9549 20.8182L39.379 23.748C38.6706 24.1212 37.8422 23.5196 37.9774 22.7295L39.0419 16.5214C39.0952 16.2073 38.9924 15.8874 38.7639 15.6666L34.2525 11.2708C33.6793 10.7111 33.9954 9.7383 34.7876 9.62217L41.0224 8.71598C41.3367 8.67029 41.609 8.4723 41.7499 8.18674L44.5379 2.53829C44.8921 1.82057 45.9166 1.82057 46.2708 2.53829V2.53829Z" stroke="black" stroke-width="3.5" stroke-miterlimit="10"/>
<path d="M27.9283 4.02125L25.9515 3.01416" stroke="black" stroke-width="3.5" stroke-miterlimit="10"/>
<path d="M27.9283 21.8955L25.9515 22.9026" stroke="black" stroke-width="3.5" stroke-miterlimit="10"/>
<path d="M23.4491 12.9292H25.9514" stroke="black" stroke-width="3.5" stroke-miterlimit="10"/>
<path d="M63.1242 4.02125L65.1009 3.01416" stroke="black" stroke-width="3.5" stroke-miterlimit="10"/>
<path d="M63.1242 21.8955L65.1009 22.9026" stroke="black" stroke-width="3.5" stroke-miterlimit="10"/>
<path d="M67.6052 12.9292H65.101" stroke="black" stroke-width="3.5" stroke-miterlimit="10"/>
</svg>
