<svg width="100" height="100" viewBox="0 0 100 100" fill="none" xmlns="http://www.w3.org/2000/svg">
<path d="M96.2242 41.3062L55.4351 41.3042C53.634 41.3042 52.174 42.764 52.174 44.5651V57.5954C52.174 59.3962 53.634 60.8563 55.4349 60.8563H78.4049C75.8896 67.3839 71.1951 72.8504 65.2056 76.3239L75 93.2787C90.7113 84.1922 100 68.2491 100 50.4018C100 47.8606 99.8127 46.044 99.4381 43.9985C99.1533 42.4444 97.8041 41.3062 96.2242 41.3062Z" fill="#167EE6"/>
<path d="M50 80.4353C38.759 80.4353 28.9457 74.2935 23.6752 65.2051L6.72092 74.9773C15.3488 89.9308 31.5117 100.001 50 100.001C59.0697 100.001 67.6277 97.5586 75 93.3029V93.2796L65.2057 76.3246C60.7256 78.923 55.5412 80.4353 50 80.4353Z" fill="#12B347"/>
<path d="M75 93.302V93.2788L65.2057 76.3237C60.7256 78.922 55.5416 80.4345 50 80.4345V99.9997C59.0697 99.9997 67.6281 97.5577 75 93.302Z" fill="#0F993E"/>
<path d="M19.5652 50.0002C19.5652 44.4593 21.0773 39.2756 23.6752 34.7957L6.7209 25.0234C2.4418 32.3725 0 40.9072 0 50.0002C0 59.0931 2.4418 67.6279 6.7209 74.9769L23.6752 65.2046C21.0773 60.7248 19.5652 55.541 19.5652 50.0002Z" fill="#FFD500"/>
<path d="M50 19.5652C57.3303 19.5652 64.0635 22.1699 69.3227 26.5025C70.6201 27.5712 72.5059 27.4941 73.6943 26.3056L82.9268 17.0732C84.2752 15.7248 84.1791 13.5176 82.7387 12.268C73.9272 4.62363 62.4623 0 50 0C31.5117 0 15.3488 10.0697 6.72092 25.0232L23.6752 34.7955C28.9457 25.707 38.759 19.5652 50 19.5652Z" fill="#FF4B26"/>
<path d="M69.3227 26.5025C70.6201 27.5713 72.5061 27.4941 73.6943 26.3056L82.9268 17.0732C84.275 15.7248 84.1789 13.5176 82.7387 12.268C73.9271 4.62343 62.4623 0 50 0V19.5652C57.3301 19.5652 64.0635 22.1699 69.3227 26.5025Z" fill="#D93F21"/>
</svg>
