<svg width="21" height="24" viewBox="0 0 21 24" fill="none" xmlns="http://www.w3.org/2000/svg">
<path d="M19.8653 22.2771C19.0839 23.0629 13.4564 27.9919 4.97896 16.5152C-3.95703 4.41496 1.40053 1.10174 3.72445 0.28388V0.281459C3.76133 0.268746 3.79821 0.258454 3.83578 0.246347C3.90118 0.224553 3.96172 0.205787 4.02155 0.187625C4.0473 0.180361 4.07374 0.171886 4.09948 0.164621C4.4265 0.0713936 4.63454 0.0405194 4.63454 0.0405194C4.63454 0.0405194 4.63315 0.0459678 4.63176 0.0544431C6.17223 -0.180442 7.61668 0.351077 7.89291 1.5255L8.37857 4.19218C8.70907 5.59302 7.43369 7.27535 5.53071 7.95216L5.37695 8.00664C6.38375 11.0474 8.41753 14.5477 12.403 17.7338L12.6959 17.5116C14.2468 16.3366 16.5471 16.1047 17.8364 16.9904L20.1019 18.7036C21.3592 19.5687 21.3111 21.1094 19.8646 22.2784L19.8653 22.2771Z" fill="white"/>
</svg>
