<svg width="25" height="18" viewBox="0 0 25 18" fill="none" xmlns="http://www.w3.org/2000/svg">
<path d="M2.7968 0.0197601C1.64789 0.086195 0.788681 0.646324 0.285601 1.66236C-0.0181731 2.27485 -0.00878821 1.9281 0.00553611 9.02061L0.0198604 15.4673L0.148038 15.8234C0.456505 16.6636 1.14506 17.3472 1.98056 17.6369L2.29866 17.7461H12.1256H21.9526L22.2801 17.6179C23.144 17.2667 23.7659 16.6352 24.0746 15.776L24.1837 15.4673L24.1981 9.02061C24.2124 1.9281 24.2218 2.26991 23.918 1.65273C23.5335 0.869341 22.8355 0.304518 21.9859 0.086195C21.7153 0.0150661 20.7849 0.00543404 12.4914 0.000741959C7.43491 -0.00395012 3.07217 0.00568199 2.7968 0.0197601ZM20.5468 2.27954C20.5422 2.34598 12.3054 8.15671 12.2296 8.15202C12.1632 8.14708 4.41076 2.31288 4.41076 2.26522C4.41076 2.25583 8.04246 2.2462 12.481 2.2462C16.9198 2.2462 20.5515 2.26053 20.5468 2.27954ZM7.22128 7.25477C9.93204 9.30562 12.1679 10.9813 12.1916 10.9813C12.22 10.9813 14.4133 9.43355 17.0717 7.54891L21.9044 4.11182L21.9188 9.59976C21.9282 14.8407 21.9235 15.0924 21.8427 15.2016C21.7953 15.268 21.6955 15.3631 21.6244 15.4152L21.4962 15.515H12.1014H2.70666L2.57848 15.4152C2.50735 15.3631 2.40288 15.2586 2.35052 15.1872C2.25075 15.0591 2.25075 15.0306 2.23667 9.29105C2.23198 6.11994 2.24136 3.52773 2.26038 3.52773C2.28409 3.52798 4.51522 5.20393 7.22128 7.25477Z" fill="white"/>
</svg>
