<svg width="14" height="28" viewBox="0 0 14 28" fill="none" xmlns="http://www.w3.org/2000/svg">
<path d="M0.447108 14.9127H3.48484V27.5483C3.48484 27.7977 3.68512 28 3.93195 28H9.08289C9.32972 28 9.53 27.7977 9.53 27.5483V14.9723H13.0224C13.2498 14.9723 13.4408 14.8001 13.4663 14.572L13.9968 9.92031C14.0114 9.79234 13.9713 9.66438 13.8863 9.56813C13.8013 9.47188 13.6801 9.41719 13.5529 9.41719H9.53V6.50125C9.53 5.62242 9.99822 5.17672 10.9227 5.17672H13.5529C13.7997 5.17672 14 4.97438 14 4.725V0.455C14 0.205625 13.7997 0.00328125 13.5529 0.00328125H9.92839C9.90295 0.0021875 9.84612 0 9.76222 0C9.13323 0 6.94695 0.124687 5.22023 1.72977C3.30676 3.5082 3.57307 5.63773 3.63641 6.00742V9.41719H0.447108C0.200278 9.41719 0 9.61953 0 9.86891V14.4616C0 14.7109 0.200278 14.9133 0.447108 14.9133V14.9127Z" fill="white"/>
</svg>
