<svg width="31" height="31" viewBox="0 0 31 31" fill="none" xmlns="http://www.w3.org/2000/svg">
<path fill-rule="evenodd" clip-rule="evenodd" d="M31 31H24.6305V20.1513C24.6305 17.1768 23.5003 15.5146 21.146 15.5146C18.5849 15.5146 17.2468 17.2444 17.2468 20.1513V31H11.1083V10.3333H17.2468V13.1171C17.2468 13.1171 19.0924 9.70194 23.4781 9.70194C27.8617 9.70194 31 12.3788 31 17.9151V31ZM3.78519 7.6272C1.6943 7.6272 0 5.9196 0 3.8136C0 1.7076 1.6943 0 3.78519 0C5.87607 0 7.56937 1.7076 7.56937 3.8136C7.56937 5.9196 5.87607 7.6272 3.78519 7.6272ZM0.61556 31H7.01637V10.3333H0.61556V31Z" fill="white"/>
</svg>
