<svg width="32" height="26" viewBox="0 0 32 26" fill="none" xmlns="http://www.w3.org/2000/svg">
<path d="M32 3.07774C30.8227 3.59986 29.5573 3.95259 28.2294 4.11127C29.5848 3.29897 30.6259 2.01269 31.116 0.4799C29.8474 1.23222 28.4424 1.77833 26.9469 2.07267C25.7494 0.796948 24.0432 0 22.1549 0C18.5293 0 15.5896 2.93872 15.5896 6.56354C15.5896 7.07799 15.6477 7.57901 15.7597 8.05939C10.3033 7.78569 5.46588 5.17248 2.22779 1.20134C1.66267 2.17073 1.33883 3.29817 1.33883 4.50111C1.33883 6.77838 2.49787 8.78739 4.25947 9.96441C3.18331 9.93034 2.17099 9.63505 1.28587 9.14347C1.28512 9.17082 1.28512 9.19834 1.28512 9.22601C1.28512 12.4061 3.54817 15.0588 6.55153 15.6622C6.00065 15.8123 5.42065 15.8924 4.82193 15.8924C4.39889 15.8924 3.98769 15.8511 3.58673 15.7747C4.42225 18.3823 6.84673 20.28 9.7197 20.3327C7.47281 22.0933 4.64209 23.1427 1.56608 23.1427C1.03616 23.1427 0.513602 23.1115 0 23.0509C2.90545 24.9134 6.35633 26 10.0639 26C22.1396 26 28.7432 15.9985 28.7432 7.3245C28.7432 7.03992 28.7368 6.75694 28.7242 6.47524C30.0068 5.55 31.1197 4.39409 31.9999 3.07774H32Z" fill="white"/>
</svg>
