<svg width="97" height="76" viewBox="0 0 97 76" fill="none" xmlns="http://www.w3.org/2000/svg">
<path d="M34.6452 44.4663L34.6452 44.4664C38.1696 47.8435 39.9296 52.0284 39.9296 57.127C39.9296 62.2133 38.1795 66.176 34.6713 69.381L34.6705 69.3818C31.1414 72.6106 26.7744 74.2435 21.472 74.2435C15.7929 74.2435 11.0949 71.9909 7.28434 67.376L7.28281 67.3742C3.49702 62.8043 1.5 56.1642 1.5 47.2454C1.5 39.1092 3.23592 31.5014 6.71694 24.4121L6.71731 24.4113C10.2234 17.261 14.4787 11.657 19.4618 7.55467L19.4623 7.55421C24.532 3.37659 28.8048 1.5 32.3333 1.5C34.7104 1.5 36.3852 2.19843 37.5558 3.43847C38.7684 4.72294 39.4181 6.40184 39.4181 8.6143C39.4181 10.2462 39.0603 11.5865 38.4003 12.6904C37.7401 13.7944 36.7264 14.7477 35.2823 15.526L35.2822 15.5259L35.2723 15.5314C30.6708 18.0565 26.9628 21.0488 24.2072 24.5297C21.3731 28.1033 19.8164 32.5477 19.4639 37.7708C19.4359 38.1852 19.5811 38.5927 19.8647 38.8961C20.1484 39.1995 20.5451 39.3718 20.9605 39.3718H20.9655H22.7356C27.1049 39.3718 31.0558 41.0267 34.6452 44.4663ZM79.8856 24.6308C77.3484 28.0414 75.8506 32.3892 75.3176 37.5937C75.2271 38.0734 75.3754 38.5755 75.7291 38.9305L75.7341 38.9355C76.0504 39.253 76.4862 39.4076 76.9201 39.3718H78.4314C82.7083 39.3718 86.6205 41.0212 90.2156 44.4663L91.1911 43.4483L90.2156 44.4664C93.74 47.8435 95.5 52.0284 95.5 57.127C95.5 62.2028 93.7566 66.1149 90.2216 69.4651C86.6897 72.8124 82.329 74.5 77.0424 74.5C71.2868 74.5 66.5758 72.19 62.8053 67.4658C59.0456 62.7552 57.0704 56.0793 57.0704 47.2504C57.0704 40.9133 58.0961 34.9691 60.1378 29.4018L60.1382 29.4007C62.1923 23.7863 64.8384 18.9241 68.0603 14.7975L68.061 14.7967C71.3015 10.6401 74.7629 7.38277 78.4313 4.99922C82.135 2.59271 85.2779 1.50503 87.9088 1.50503C90.4023 1.50503 92.0824 2.19638 93.1957 3.37734C94.3529 4.60493 94.9986 6.2989 94.9986 8.61933C94.9986 10.3008 94.6378 11.6593 93.9809 12.7574C93.3255 13.853 92.321 14.7805 90.8882 15.5176C90.8706 15.5266 90.8532 15.536 90.836 15.5457C86.0809 18.2346 82.4032 21.2519 79.8863 24.6299L79.8856 24.6308Z" stroke="#6A1F45" stroke-width="3" stroke-linejoin="round"/>
</svg>
