<svg width="24" height="24" viewBox="0 0 24 24" fill="none" xmlns="http://www.w3.org/2000/svg">
<path fill-rule="evenodd" clip-rule="evenodd" d="M23.331 23.8463H18.5653V15.7293C18.5653 13.5038 17.7197 12.2602 15.9582 12.2602C14.0419 12.2602 13.0408 13.5544 13.0408 15.7293V23.8463H8.44799V8.38352H13.0408V10.4664C13.0408 10.4664 14.4217 7.9111 17.703 7.9111C20.9829 7.9111 23.331 9.91395 23.331 14.0562V23.8463ZM2.9688 6.35878C1.4044 6.35878 0.136719 5.08116 0.136719 3.50544C0.136719 1.92973 1.4044 0.6521 2.9688 0.6521C4.53321 0.6521 5.80013 1.92973 5.80013 3.50544C5.80013 5.08116 4.53321 6.35878 2.9688 6.35878ZM0.597282 23.8463H5.38638V8.38352H0.597282V23.8463Z" fill="white"/>
</svg>
