<svg width="24" height="20" viewBox="0 0 24 20" fill="none" xmlns="http://www.w3.org/2000/svg">
<path d="M23.9424 2.69583C23.0616 3.08649 22.1148 3.3504 21.1213 3.46913C22.1354 2.86136 22.9144 1.89896 23.281 0.752128C22.3318 1.31501 21.2806 1.72362 20.1617 1.94384C19.2658 0.989344 17.9891 0.393066 16.5763 0.393066C13.8636 0.393066 11.6641 2.59182 11.6641 5.30392C11.6641 5.68883 11.7076 6.06369 11.7914 6.42311C7.70896 6.21833 4.08958 4.26313 1.66684 1.29191C1.24401 2.01721 1.00171 2.86076 1.00171 3.76081C1.00171 5.46466 1.86891 6.9678 3.18694 7.84845C2.38176 7.82296 1.62434 7.60202 0.962088 7.23423C0.96153 7.25469 0.96153 7.27528 0.96153 7.29598C0.96153 9.67535 2.65474 11.6601 4.90187 12.1116C4.4897 12.2238 4.05574 12.2838 3.60777 12.2838C3.29125 12.2838 2.9836 12.2529 2.6836 12.1957C3.30873 14.1467 5.12274 15.5666 7.27229 15.6061C5.59117 16.9233 3.47322 17.7085 1.17175 17.7085C0.775258 17.7085 0.384277 17.6851 0 17.6398C2.17386 19.0333 4.75582 19.8463 7.52979 19.8463C16.5648 19.8463 21.5057 12.3631 21.5057 5.87327C21.5057 5.66035 21.501 5.44862 21.4915 5.23785C22.4511 4.54559 23.2838 3.68073 23.9424 2.69583H23.9424Z" fill="white"/>
</svg>
