<svg width="180" height="65" viewBox="0 0 180 65" fill="none" xmlns="http://www.w3.org/2000/svg">
<path d="M10.5663 53.7809C10.2972 52.4111 9.48993 51.8946 8.38958 51.8946C7.00893 51.8946 6.20168 52.6918 6.20168 54.8941V55.855C6.20168 58.0702 7.02014 58.8546 8.38958 58.8546C9.5588 58.8546 10.3084 58.2338 10.5663 56.9457H11.2213C10.9635 58.7615 9.77022 59.4882 8.38958 59.4882C6.63413 59.4882 5.52417 58.468 5.52417 55.8566V54.8958C5.52417 52.2827 6.63574 51.2642 8.38958 51.2642C9.82788 51.2642 10.9747 52.0133 11.2326 53.7825H10.5663V53.7809Z" fill="white"/>
<path d="M16.8144 59.4865C15.083 59.4865 13.949 58.4085 13.949 55.8549V54.894C13.949 52.3516 15.083 51.2625 16.8144 51.2625C18.5459 51.2625 19.6798 52.3516 19.6798 54.894V55.8549C19.6798 58.4085 18.5459 59.4865 16.8144 59.4865ZM14.6265 55.8549C14.6265 58.046 15.4931 58.8545 16.8144 58.8545C18.1358 58.8545 19.0023 58.046 19.0023 55.8549V54.894C19.0023 52.7141 18.1358 51.8945 16.8144 51.8945C15.4931 51.8945 14.6265 52.7141 14.6265 54.894V55.8549Z" fill="white"/>
<path d="M28.3769 51.3315V59.416H27.7218L23.6968 52.6902V59.416H23.0177V51.3315H23.6616L27.6978 58.1151V51.3315H28.3769Z" fill="white"/>
<path d="M36.9892 51.3315V51.9635H34.4265V59.4144H33.7474V51.9635H31.1847V51.3315H36.9876H36.9892Z" fill="white"/>
<path d="M44.642 59.4159L42.8513 55.9591C42.6752 55.9816 42.5006 55.9816 42.3132 55.9816H40.476V59.4143H39.7969V51.3298H42.3116C44.1359 51.3298 45.1898 52.1271 45.1898 53.6621C45.1898 54.809 44.5924 55.5485 43.5288 55.8404L45.4012 59.4143H44.6404L44.642 59.4159ZM42.3132 55.3512C43.7291 55.3512 44.5123 54.87 44.5123 53.6637C44.5123 52.4575 43.7291 51.965 42.3132 51.965H40.476V55.3512H42.3132Z" fill="white"/>
<path d="M50.9623 59.4865C49.2308 59.4865 48.0969 58.4085 48.0969 55.8549V54.894C48.0969 52.3516 49.2308 51.2625 50.9623 51.2625C52.6937 51.2625 53.8277 52.3516 53.8277 54.894V55.8549C53.8277 58.4085 52.6937 59.4865 50.9623 59.4865ZM48.7744 55.8549C48.7744 58.046 49.6409 58.8545 50.9623 58.8545C52.2837 58.8545 53.1502 58.046 53.1502 55.8549V54.894C53.1502 52.7141 52.2837 51.8945 50.9623 51.8945C49.6409 51.8945 48.7744 52.7141 48.7744 54.894V55.8549Z" fill="white"/>
<path d="M57.8431 58.784H61.9146V59.416H57.1656V51.3315H57.8447V58.7824L57.8431 58.784Z" fill="white"/>
<path d="M65.3454 58.784H69.4168V59.416H64.6678V51.3315H65.347V58.7824L65.3454 58.784Z" fill="white"/>
<path d="M76.9174 51.3314V51.9634H72.846V54.9165H76.5667V55.5485H72.846V58.7823H76.9174V59.4143H72.1685V51.3298H76.9174V51.3314Z" fill="white"/>
<path d="M85.0027 59.4159L83.2121 55.9591C83.0375 55.9816 82.8613 55.9816 82.6739 55.9816H80.8368V59.4143H80.1577V51.3298H82.6739C84.4982 51.3298 85.5505 52.1271 85.5505 53.6621C85.5505 54.809 84.9547 55.5485 83.8896 55.8404L85.7619 59.4143H85.0011L85.0027 59.4159ZM82.6755 55.3512C84.0914 55.3512 84.8746 54.87 84.8746 53.6637C84.8746 52.4575 84.0898 51.965 82.6755 51.965H80.8384V55.3512H82.6755Z" fill="white"/>
<path d="M89.3113 52.8201L88.5153 53.5115V51.1567H89.3113V52.8217V52.8201Z" fill="white"/>
<path d="M97.1275 52.9724C96.7063 52.3516 96.1441 51.8945 95.0341 51.8945C93.9242 51.8945 93.1858 52.3516 93.1858 53.3477C93.1858 54.5075 94.1099 54.801 95.2808 55.0577C96.8024 55.3865 97.8082 55.8549 97.8082 57.3771C97.8082 58.4085 97.0827 59.4865 95.1526 59.4865C93.8665 59.4865 92.9311 59.0405 92.3337 58.1631L92.8831 57.7765C93.386 58.4085 93.9466 58.8545 95.1526 58.8545C96.5926 58.8545 97.1307 58.1856 97.1307 57.4012C97.1307 56.4291 96.5685 55.9607 95.0485 55.6672C93.5397 55.3737 92.5099 54.7882 92.5099 53.3477C92.5099 52.2121 93.2466 51.2625 95.0597 51.2625C96.3123 51.2625 97.1067 51.6955 97.6689 52.5874L97.1307 52.974L97.1275 52.9724Z" fill="white"/>
<path d="M110.678 55.4667V55.7955C110.678 58.3732 109.566 59.4865 107.764 59.4865C105.962 59.4865 104.897 58.4663 104.897 55.8549V54.894C104.897 52.281 106.009 51.2625 107.764 51.2625C109.191 51.2625 110.349 52.0115 110.607 53.7808H109.941C109.683 52.4334 108.889 51.8945 107.764 51.8945C106.395 51.8945 105.576 52.6917 105.576 54.894V55.8549C105.576 58.0572 106.395 58.8545 107.764 58.8545C109.134 58.8545 109.917 58.0813 109.987 56.1019H107.799V55.4683H110.678V55.4667Z" fill="white"/>
<path d="M118.507 59.4159L116.718 55.9591C116.541 55.9816 116.367 55.9816 116.179 55.9816H114.342V59.4143H113.663V51.3298H116.178C118.002 51.3298 119.056 52.1271 119.056 53.6621C119.056 54.809 118.459 55.5485 117.394 55.8404L119.266 59.4143H118.505L118.507 59.4159ZM116.178 55.3512C117.594 55.3512 118.377 54.87 118.377 53.6637C118.377 52.4575 117.594 51.965 116.178 51.965H114.341V55.3512H116.178Z" fill="white"/>
<path d="M124.476 59.4865C122.745 59.4865 121.609 58.4085 121.609 55.8549V54.894C121.609 52.3516 122.745 51.2625 124.476 51.2625C126.208 51.2625 127.343 52.3516 127.343 54.894V55.8549C127.343 58.4085 126.208 59.4865 124.476 59.4865ZM122.288 55.8549C122.288 58.046 123.153 58.8545 124.476 58.8545C125.799 58.8545 126.664 58.046 126.664 55.8549V54.894C126.664 52.7141 125.799 51.8945 124.476 51.8945C123.153 51.8945 122.288 52.7141 122.288 54.894V55.8549Z" fill="white"/>
<path d="M130.327 56.1116V51.3315H131.006V56.1116C131.006 57.9868 131.778 58.853 133.194 58.853C134.61 58.853 135.382 57.9852 135.382 56.1116V51.3315H136.061V56.1116C136.061 58.4905 134.95 59.4866 133.196 59.4866C131.442 59.4866 130.329 58.4905 130.329 56.1116H130.327Z" fill="white"/>
<path d="M140.134 56.2175V59.416H139.455V51.3315H141.912C143.772 51.3315 144.848 52.2459 144.848 53.7793C144.848 55.3128 143.784 56.2159 141.912 56.2159H140.134V56.2175ZM141.912 55.5855C143.469 55.5855 144.17 54.9166 144.17 53.7809C144.17 52.6453 143.469 51.9651 141.912 51.9651H140.134V55.5855H141.912Z" fill="white"/>
<path d="M147.471 60.1781L146.675 60.8694V58.5034H147.471V60.1797V60.1781Z" fill="white"/>
<path d="M153.366 59.416H152.687V51.3315H153.366V59.416Z" fill="white"/>
<path d="M162.585 51.3315V59.416H161.93L157.905 52.6902V59.416H157.226V51.3315H157.87L161.906 58.1151V51.3315H162.585Z" fill="white"/>
<path d="M170.965 53.7808C170.696 52.4094 169.889 51.8945 168.788 51.8945C167.408 51.8945 166.6 52.6917 166.6 54.894V55.8549C166.6 58.0685 167.419 58.8545 168.788 58.8545C169.957 58.8545 170.707 58.2337 170.965 56.944H171.62C171.362 58.7598 170.169 59.4865 168.788 59.4865C167.033 59.4865 165.923 58.4679 165.923 55.8549V54.894C165.923 52.281 167.034 51.2625 168.788 51.2625C170.228 51.2625 171.373 52.0116 171.631 53.7824H170.963L170.965 53.7808Z" fill="white"/>
<path d="M175.353 59.416H174.405V58.468H175.353V59.416Z" fill="white"/>
<path d="M180 45.8584H48.7744V46.4744H180V45.8584Z" fill="white"/>
<path d="M30.3951 45.8584H0V46.4744H30.3951V45.8584Z" fill="white"/>
<path d="M180 63.8384H0V64.4543H180V63.8384Z" fill="white"/>
<path d="M24.6915 21.4015H24.9942C26.8041 21.4015 28.4971 22.21 29.6391 23.6199L31.0485 22.4746C29.5606 20.6364 27.3535 19.5825 24.9942 19.5825H24.6915C20.3958 19.5825 16.8993 23.0826 16.8993 27.3863V30.8013C16.8993 35.1034 20.3942 38.6051 24.6915 38.6051H24.9942C27.3246 38.6051 29.5141 37.572 31.0005 35.7723L29.6022 34.6142C28.4618 35.9952 26.7817 36.7877 24.9942 36.7877H24.6915C21.3952 36.7877 18.714 34.1025 18.714 30.8013V27.3863C18.714 24.0851 21.3952 21.3999 24.6915 21.3999V21.4015Z" fill="white"/>
<path d="M45.3724 21.8794C44.1135 20.5063 42.3068 19.6433 40.3015 19.6433H39.9283C36.1323 19.6433 33.0427 22.7359 33.0427 26.5392V31.7315C33.0427 35.5331 36.1307 38.6273 39.9283 38.6273H40.3015C42.3052 38.6273 44.1119 37.7644 45.3724 36.3913V40.5282C45.3724 43.3272 43.0676 45.6066 40.2342 45.6066H39.0105C37.4601 45.6066 36.0074 44.9249 35.0271 43.7347L33.6289 44.8928C34.9567 46.5017 36.9187 47.424 39.0121 47.424H40.2358C44.0686 47.424 47.1887 44.3314 47.1887 40.5282V20.1149H45.374V21.8794H45.3724ZM40.3015 36.8083H39.9283C37.1318 36.8083 34.8574 34.5306 34.8574 31.7299V26.5376C34.8574 23.7369 37.1318 21.4591 39.9283 21.4591H40.3015C43.0964 21.4591 45.3724 23.7369 45.3724 26.5376V31.7299C45.3724 34.529 43.098 36.8083 40.3015 36.8083Z" fill="white"/>
<path d="M54.3642 20.115H52.5495V38.2152H54.3642V20.115Z" fill="white"/>
<path d="M53.7796 2.71094C49.5656 2.71094 46.1508 6.13079 46.1508 10.3511C46.1508 14.5713 49.5656 17.9912 53.7796 17.9912C57.9936 17.9912 61.0881 14.8825 61.386 10.9349H53.7684L53.7796 2.71094Z" fill="white"/>
<path d="M55.455 0C60.2055 0 64.056 3.85616 64.056 8.6138C64.056 8.88488 64.0432 9.15116 64.0191 9.41583H55.455V0Z" fill="white"/>
</svg>
