<svg width="76" height="84" viewBox="0 0 76 84" fill="none" xmlns="http://www.w3.org/2000/svg">
<path d="M61.4018 35.4192C61.4018 23.2515 50.9746 13.3652 38.1826 13.3652C25.3906 13.3652 14.9633 23.2515 14.9633 35.4192C14.9633 47.5692 25.3719 57.4732 38.1826 57.4732C50.9932 57.4732 61.4018 47.5692 61.4018 35.4192ZM38.1826 54.6258C27.0291 54.6258 17.9425 46.0129 17.9425 35.4015C17.9425 24.7901 27.0291 16.1949 38.1826 16.1949C49.336 16.1949 58.4226 24.8078 58.4226 35.4192C58.4226 46.0306 49.336 54.6258 38.1826 54.6258Z" fill="black"/>
<path d="M66.6341 58.2336C67.472 57.8268 68.2168 57.2962 68.794 56.5534C70.3022 54.5903 69.9484 52.0259 69.6133 49.5323C69.3898 47.9229 69.1664 46.2427 69.5574 45.1108C69.9112 44.0497 71.1029 42.8648 72.2387 41.7329C74.0076 39.9643 76 37.9659 76 35.4368C76 32.9078 74.0262 30.8739 72.2573 29.1054C71.1215 27.9558 69.9298 26.7885 69.576 25.7274C69.185 24.5955 69.4085 22.9154 69.6319 21.306C69.9671 18.8123 70.3022 16.2479 68.8126 14.2848C67.3044 12.304 64.6045 11.8265 61.9977 11.349C60.3219 11.0483 58.5902 10.7477 57.6033 10.0579C56.6165 9.38589 55.7972 7.93567 54.9965 6.52082C53.7862 4.39854 52.3897 1.9933 49.9132 1.21513C47.5299 0.472333 45.0906 1.56884 42.7259 2.62998C41.1432 3.3374 39.5232 4.06252 38.2198 4.06252C36.9164 4.06252 35.2965 3.3374 33.7137 2.62998C31.349 1.56884 28.9098 0.472333 26.5264 1.21513C24.0313 1.97561 22.7279 4.29243 21.4431 6.52082C20.6424 7.91798 19.8045 9.38589 18.8363 10.0579C17.8308 10.7477 16.1178 11.066 14.4419 11.349C11.8351 11.8088 9.13522 12.304 7.627 14.2848C6.11877 16.2479 6.47255 18.8123 6.80771 21.306C7.03115 22.9154 7.25459 24.5955 6.86357 25.7274C6.50979 26.7885 5.3181 27.9735 4.18228 29.1054C2.41337 30.8739 0.421021 32.8724 0.421021 35.4014C0.421021 37.9305 2.43199 39.929 4.18228 41.6975C5.3181 42.8471 6.50979 44.0143 6.86357 45.0755C7.25459 46.2074 7.03115 47.8875 6.80771 49.4969C6.47255 51.9906 6.13739 54.555 7.627 56.5181C8.20422 57.2609 8.94902 57.8091 9.78693 58.1982L1.66857 71.5508C1.37065 72.0461 1.40789 72.665 1.78029 73.1249C2.15269 73.5847 2.76715 73.7792 3.34438 73.6378L15.3357 70.5781L18.557 81.9677C18.706 82.5159 19.2087 82.9227 19.8045 83.0111C19.879 83.0111 19.9349 83.0288 19.9907 83.0288C20.5121 83.0288 21.0148 82.7635 21.2755 82.3214L28.8911 69.7823C30.5111 69.6054 32.1497 68.8803 33.7324 68.1729C35.3151 67.4655 36.935 66.7404 38.2384 66.7404C39.5418 66.7404 41.1618 67.4655 42.7445 68.1729C44.3272 68.8803 45.9658 69.6231 47.5857 69.7823L55.2013 82.3214C55.462 82.7635 55.9647 83.0288 56.4861 83.0288C56.542 83.0288 56.6165 83.0288 56.6723 83.0111C57.2682 82.9404 57.7523 82.5336 57.9199 81.9677L61.1411 70.5781L73.1325 73.6378C73.7097 73.7792 74.3242 73.5847 74.6966 73.1249C75.069 72.665 75.1062 72.0461 74.8083 71.5508L66.6341 58.2336ZM20.4376 77.9707L17.7749 68.5089C17.5701 67.7484 16.7508 67.3063 15.9502 67.5008L5.98843 70.0299L12.6172 59.1179C13.1944 59.2417 13.7902 59.3478 14.3861 59.4539C16.0619 59.7545 17.7936 60.0552 18.7804 60.7449C19.7673 61.417 20.5866 62.8672 21.3872 64.2821C22.4672 66.1744 23.6775 68.279 25.6885 69.2694L20.4376 77.9707ZM38.1826 63.9283C36.2088 63.9283 34.2723 64.7949 32.4103 65.6262C30.5669 66.4574 28.6677 67.3063 27.4202 66.9172C26.0609 66.4928 25.0368 64.6888 24.0313 62.9556C23.0631 61.2755 22.0762 59.5423 20.5493 58.4812C19.0039 57.42 16.937 57.0486 14.9447 56.6949C12.9151 56.3235 10.811 55.9521 9.97313 54.891C9.17246 53.8475 9.43314 51.8314 9.69383 49.9037C9.95451 47.9759 10.2152 45.9951 9.61935 44.2443C9.04212 42.5818 7.627 41.1493 6.26773 39.7875C4.81536 38.3372 3.30713 36.834 3.30713 35.4368C3.30713 34.0396 4.81536 32.5364 6.26773 31.0861C7.64562 29.7067 9.06074 28.2918 9.61935 26.6294C10.2152 24.8785 9.95451 22.8977 9.69383 20.97C9.43314 19.0246 9.17246 17.0261 9.97313 15.9826C10.7924 14.9038 12.8965 14.5324 14.9447 14.1787C16.937 13.825 19.0039 13.4536 20.5493 12.3924C22.0762 11.349 23.0631 9.59811 24.0313 7.91798C25.0368 6.1671 26.0609 4.38086 27.4202 3.9564C28.6863 3.56732 30.5856 4.41623 32.4103 5.24745C34.2723 6.07868 36.2088 6.94527 38.1826 6.94527C40.1563 6.94527 42.0928 6.07868 43.9548 5.24745C45.7982 4.41623 47.6974 3.56732 48.945 3.9564C50.3042 4.38086 51.3284 6.18479 52.3338 7.91798C53.3021 9.59811 54.2889 11.3313 55.8158 12.3924C57.3613 13.4536 59.4281 13.825 61.4204 14.1787C63.45 14.5501 65.5541 14.9215 66.392 15.9826C67.1927 17.0261 66.932 19.0422 66.6713 20.97C66.4106 22.8977 66.1499 24.8785 66.7458 26.6294C67.323 28.2918 68.7381 29.7244 70.0974 31.0861C71.5498 32.5364 73.058 34.0396 73.058 35.4368C73.058 36.834 71.5498 38.3372 70.0974 39.7875C68.7195 41.167 67.3044 42.5818 66.7458 44.2443C66.1499 45.9951 66.4106 47.9759 66.6713 49.9037C66.932 51.8491 67.1927 53.8475 66.392 54.891C65.5727 55.9698 63.4686 56.3412 61.4204 56.6949C59.4281 57.0486 57.3613 57.42 55.8158 58.4812C54.2889 59.5246 53.3021 61.2755 52.3338 62.9556C51.3284 64.7065 50.3042 66.4928 48.945 66.9172C47.6788 67.3063 45.7796 66.4574 43.9548 65.6262C42.0928 64.7949 40.1563 63.9283 38.1826 63.9283ZM60.415 67.5008C59.6143 67.3063 58.795 67.7484 58.5902 68.5089L55.9275 77.9707L50.658 69.3048C52.6504 68.3321 53.8234 66.2982 54.9593 64.3174C55.7599 62.9203 56.5978 61.4524 57.5661 60.7803C58.5716 60.0906 60.2846 59.7722 61.9604 59.4893C62.5563 59.3831 63.1521 59.277 63.7293 59.1532L70.3581 70.0653L60.415 67.5008Z" fill="black"/>
<path d="M52.1475 26.753C51.5702 26.2047 50.6206 26.2047 50.0434 26.753L34.9611 41.0783L26.34 32.8899C25.7628 32.3416 24.8132 32.3416 24.236 32.8899C23.6587 33.4382 23.6587 34.3401 24.236 34.8884L33.9184 44.0849C34.1977 44.3502 34.5701 44.4917 34.9797 44.4917C35.3894 44.4917 35.7618 44.3502 36.0411 44.0849L52.1475 28.7515C52.7247 28.2032 52.7247 27.3012 52.1475 26.753Z" fill="black"/>
</svg>
