<svg width="88" height="88" viewBox="0 0 88 88" fill="none" xmlns="http://www.w3.org/2000/svg">
<path d="M2.68768 88H83.7147C84.084 88.0013 84.4402 87.8636 84.7124 87.6143C84.9845 87.3651 85.1527 87.0226 85.1833 86.6551L87.99 53.042C88.0235 52.6372 87.9725 52.2298 87.8402 51.8457C87.7079 51.4616 87.4971 51.1091 87.2213 50.8106C86.9454 50.5121 86.6105 50.2741 86.2377 50.1116C85.8649 49.9491 85.4623 49.8657 85.0556 49.8667H57.161C56.4255 49.8708 55.718 50.1487 55.1769 50.6462C54.6358 51.1437 54.3001 51.8249 54.2354 52.5565L53.9548 55.9167C50.8072 52.9716 46.6553 51.3329 42.342 51.3333H41.9322C40.9736 50.1127 39.6675 49.2102 38.1856 48.7447V47.1709C40.2555 45.7823 41.9808 43.9404 43.2301 41.7853C44.4795 39.6303 45.2201 37.219 45.3954 34.7351C46.1074 34.5034 46.7649 34.1298 47.3281 33.6369C47.8913 33.1441 48.3485 32.5422 48.672 31.8677C49.732 29.5052 50.1669 26.9105 49.9351 24.332V20.9279C49.9809 15.4317 47.8419 10.1418 43.9873 6.2185C40.1326 2.29519 34.8771 0.0588432 29.3736 0C23.87 0.0588432 18.6145 2.29519 14.7599 6.2185C10.9053 10.1418 8.76625 15.4317 8.81207 20.9279V24.332C8.57983 26.9139 9.01682 29.5121 10.081 31.8765C10.4034 32.5497 10.8597 33.1503 11.422 33.6417C11.9843 34.1332 12.6409 34.5052 13.3518 34.7351C13.5275 37.2189 14.2682 39.6301 15.5176 41.785C16.7669 43.94 18.492 45.782 20.5615 47.1709V48.7447C19.0797 49.2102 17.7736 50.1127 16.8149 51.3333H16.4051C7.35955 51.3333 0 58.3147 0 66.8947V85.316C0.000777501 86.0276 0.284193 86.7098 0.788062 87.213C1.29193 87.7162 1.9751 87.9992 2.68768 88ZM29.3736 56.2525C30.6407 56.4151 31.862 56.8312 32.9645 57.4757L31.3166 61.6H27.4305L25.7841 57.4933C26.8866 56.8466 28.1067 56.4248 29.3736 56.2525ZM27.7903 64.5333H30.9568L32.6326 85.0667H26.1146L27.7903 64.5333ZM33.8031 63.2925L35.1249 59.9881C35.1894 60.1516 35.2448 60.3186 35.2909 60.4883C35.3456 60.7075 35.4503 60.9112 35.5968 61.0834C35.7433 61.2556 35.9277 61.3916 36.1355 61.4809C36.3434 61.5702 36.5691 61.6103 36.795 61.5982C37.021 61.586 37.241 61.5219 37.4381 61.4108C38.2074 60.9451 38.9166 60.387 39.55 59.7491C39.1946 68.5916 37.9697 78.7805 35.4275 83.2157L33.8031 63.2925ZM22.6176 61.4812C22.8255 61.3918 23.0099 61.2557 23.1563 61.0835C23.3028 60.9113 23.4075 60.7075 23.4621 60.4883C23.5082 60.3186 23.5636 60.1516 23.6281 59.9881L24.9499 63.2925L23.2918 83.5457C20.8361 79.574 19.5437 69.2296 19.1883 59.7403C19.8231 60.3821 20.535 60.9432 21.3076 61.4108C21.5046 61.522 21.7247 61.5862 21.9507 61.5984C22.1767 61.6106 22.4024 61.5705 22.6103 61.4812H22.6176ZM51.5212 85.0667H45.529V80.6667H51.8884L51.5212 85.0667ZM85.057 52.8L82.3635 85.0667H54.4689L57.161 52.8H85.057ZM53.6141 59.994L52.1381 77.7333H45.529C44.75 77.7333 44.0029 78.0424 43.452 78.5925C42.9011 79.1426 42.5917 79.8887 42.5917 80.6667V85.0667H37.6907C39.6763 81.8943 41.054 76.406 41.8661 68.4523C42.4654 62.5739 42.5755 56.8949 42.5917 54.2813C44.7486 54.3048 46.8699 54.834 48.7844 55.8262C50.699 56.8185 52.3534 58.2461 53.6141 59.994ZM39.644 53.1696C39.5006 54.9518 38.6798 56.6116 37.35 57.8087C36.5449 56.4679 35.377 55.3814 33.9808 54.6744C35.3604 53.9333 36.5458 52.8782 37.441 51.5944C38.3205 51.8799 39.09 52.4301 39.644 53.1696ZM29.3736 2.93333C34.011 2.99035 38.4435 4.8505 41.7297 8.11871C45.0158 11.3869 46.8966 15.8057 46.9727 20.4365C46.4041 20.2918 45.8088 20.2878 45.2382 20.4248C43.9869 15.3399 38.9817 12.7351 35.871 11.9577C35.3624 11.8203 34.8303 11.7923 34.3101 11.8754C33.7898 11.9586 33.2931 12.1511 32.8529 12.4403C28.7053 15.2504 20.7847 16.5763 16.7591 16.7508C15.8231 16.8013 14.94 17.2006 14.2844 17.8697C13.6289 18.5388 13.2484 19.429 13.2181 20.3647C12.7369 20.2863 12.2447 20.3063 11.7715 20.4233C11.851 15.7943 13.7337 11.3784 17.0201 8.11297C20.3065 4.8475 24.7379 2.9895 29.3736 2.93333ZM16.27 34.3669C16.2413 33.8216 16.044 33.2985 15.7052 32.8698C15.3664 32.4411 14.9029 32.1279 14.3784 31.9733C14.0157 31.8774 13.6787 31.7026 13.3916 31.4615C13.1044 31.2204 12.8742 30.9189 12.7173 30.5785C11.8601 28.6147 11.5267 26.4627 11.7494 24.332C11.747 24.1556 11.7855 23.9811 11.862 23.822C11.9384 23.663 12.0507 23.5238 12.19 23.4153C12.3194 23.3128 12.4787 23.2552 12.6439 23.2511C12.7059 23.251 12.7677 23.2594 12.8274 23.276C13.0134 23.3611 13.161 23.5121 13.2416 23.6999C13.3062 24.0582 13.502 24.3797 13.7908 24.6019C14.0797 24.824 14.4409 24.931 14.8044 24.9019C15.1678 24.8728 15.5074 24.7098 15.7571 24.4445C16.0068 24.1792 16.1488 23.8307 16.1555 23.4667V20.5187C16.1485 20.312 16.2205 20.1105 16.3569 19.955C16.4933 19.7995 16.6838 19.7016 16.8898 19.6812C21.403 19.4847 29.8142 18.0415 34.486 14.8764C34.5833 14.8194 34.6912 14.783 34.8032 14.7696C34.9152 14.7563 35.0287 14.7661 35.1367 14.7987C35.4451 14.8749 42.5917 16.7303 42.5917 22.88V23.4667C42.5923 23.835 42.7317 24.1895 42.9821 24.4599C43.2325 24.7303 43.5756 24.8968 43.9432 24.9261C44.3108 24.9555 44.6761 24.8457 44.9663 24.6185C45.2566 24.3913 45.4507 24.0634 45.5099 23.6999C45.5894 23.5127 45.7361 23.3621 45.9212 23.2775C46.0312 23.2478 46.1467 23.2449 46.2581 23.2689C46.3695 23.2929 46.4735 23.3431 46.5615 23.4153C46.7008 23.5238 46.8131 23.663 46.8896 23.822C46.966 23.9811 47.0045 24.1556 47.0021 24.332C47.226 26.4609 46.8941 28.6114 46.0387 30.5741C45.8792 30.9211 45.6441 31.228 45.3506 31.4726C45.0571 31.7172 44.7127 31.8933 44.3423 31.988C43.8253 32.1452 43.3693 32.4576 43.0364 32.8827C42.7034 33.3078 42.5097 33.825 42.4815 34.364C42.3073 37.731 40.8547 40.9051 38.4195 43.2403C35.9843 45.5754 32.7495 46.896 29.3736 46.9333C25.9989 46.895 22.7656 45.5743 20.3314 43.2398C17.8972 40.9054 16.4449 37.7327 16.27 34.3669ZM29.3736 49.8667C31.3866 49.867 33.381 49.4811 35.2483 48.73V49.5572C34.9149 50.2099 33.5226 52.3556 29.3736 53.2723C25.2069 52.3527 23.819 50.1923 23.4989 49.5616V48.73C25.3661 49.4811 27.3605 49.867 29.3736 49.8667ZM21.3061 51.5885C22.2013 52.8723 23.3867 53.9275 24.7663 54.6685C23.3708 55.3758 22.2031 56.4616 21.3972 57.8013C20.0668 56.6053 19.2458 54.9457 19.1031 53.1637C19.6575 52.4246 20.4269 51.8745 21.3061 51.5885ZM2.93736 66.8947C3.05231 63.484 4.50018 60.2539 6.97083 57.8963C9.44148 55.5387 12.7384 54.241 16.1555 54.2813C16.1701 56.9624 16.2774 62.8775 16.881 68.9055C17.6594 76.6788 18.9739 82.016 20.8596 85.0696H2.93736V66.8947Z" fill="black"/>
<path d="M69.6657 71.7609C71.266 71.7228 72.8046 71.1553 74.0257 70.1528C75.2467 69.1504 76.0767 67.7734 76.3774 66.2508C76.527 65.5073 76.5065 64.7411 76.3174 64.0061C76.1283 63.2711 75.7752 62.5851 75.2829 61.9965C74.7857 61.4314 74.1648 60.9806 73.4654 60.6767C72.766 60.3728 72.0055 60.2235 71.2391 60.2394C69.6388 60.2776 68.1002 60.8451 66.8791 61.8476C65.6581 62.85 64.8281 64.227 64.5274 65.7496C64.3778 66.4931 64.3983 67.2593 64.5874 67.9943C64.7765 68.7293 65.1296 69.4153 65.6219 70.0039C66.1191 70.5689 66.7399 71.0197 67.4394 71.3236C68.1388 71.6275 68.8993 71.7769 69.6657 71.7609ZM67.4542 66.2508C67.6386 65.397 68.1102 64.6265 68.7951 64.06C69.48 63.4935 70.3395 63.1628 71.2391 63.1198C71.5705 63.1076 71.9007 63.1664 72.2058 63.2921C72.511 63.4179 72.7837 63.6074 73.0045 63.8471C73.218 64.1133 73.3686 64.4217 73.4457 64.7504C73.5228 65.0791 73.5245 65.4202 73.4506 65.7496C73.2662 66.6034 72.7946 67.3738 72.1097 67.9404C71.4248 68.5069 70.5653 68.8376 69.6657 68.8806C69.3343 68.8928 69.0041 68.834 68.699 68.7082C68.3938 68.5825 68.1211 68.393 67.9003 68.1533C67.6868 67.8871 67.5362 67.5787 67.4591 67.25C67.382 66.9213 67.3803 66.5802 67.4542 66.2508Z" fill="black"/>
<path d="M85.0754 0H55.8294C55.0537 0 54.3098 0.310674 53.7614 0.863678C53.2129 1.41668 52.9048 2.16671 52.9048 2.94878V29.4878C52.9048 30.2699 53.2129 31.0199 53.7614 31.5729C54.3098 32.1259 55.0537 32.4366 55.8294 32.4366H61.3233L67.3494 38.5007C67.754 38.9152 68.2363 39.2444 68.7683 39.4691C69.3002 39.6938 69.8712 39.8095 70.448 39.8095C71.0248 39.8095 71.5958 39.6938 72.1278 39.4691C72.6598 39.2444 73.1421 38.9152 73.5466 38.5007L79.5816 32.4366H85.0754C85.8511 32.4366 86.595 32.1259 87.1434 31.5729C87.6919 31.0199 88 30.2699 88 29.4878V2.94878C88 2.16671 87.6919 1.41668 87.1434 0.863678C86.595 0.310674 85.8511 0 85.0754 0V0ZM85.0754 29.4878H78.9776C78.5905 29.4879 78.2193 29.6427 77.9452 29.9183L71.476 36.4277C71.204 36.7004 70.836 36.8534 70.4524 36.8534C70.0688 36.8534 69.7008 36.7004 69.4288 36.4277L62.9654 29.9257C62.8296 29.7872 62.668 29.6772 62.4898 29.602C62.3116 29.5268 62.1203 29.488 61.9272 29.4878H55.8294V2.94878H85.0754V29.4878Z" fill="black"/>
<path d="M60.1399 26.1903H80.7649C81.1556 26.1903 81.5303 26.0366 81.8066 25.7629C82.0829 25.4893 82.2381 25.1181 82.2381 24.7311C82.2381 24.3441 82.0829 23.973 81.8066 23.6993C81.5303 23.4257 81.1556 23.2719 80.7649 23.2719H79.2917V14.5168C79.2917 14.1298 79.1365 13.7587 78.8602 13.485C78.5839 13.2114 78.2092 13.0576 77.8185 13.0576C77.4278 13.0576 77.053 13.2114 76.7768 13.485C76.5005 13.7587 76.3453 14.1298 76.3453 14.5168V23.2719H73.3988V11.5985C73.3988 11.2115 73.2436 10.8403 72.9673 10.5667C72.6911 10.293 72.3163 10.1393 71.9256 10.1393C71.5349 10.1393 71.1602 10.293 70.8839 10.5667C70.6076 10.8403 70.4524 11.2115 70.4524 11.5985V23.2719H67.506V17.4352C67.506 17.0482 67.3508 16.677 67.0745 16.4034C66.7982 16.1297 66.4235 15.976 66.0328 15.976C65.642 15.976 65.2673 16.1297 64.991 16.4034C64.7148 16.677 64.5595 17.0482 64.5595 17.4352V23.2719H61.6131V7.2209C61.6131 6.8339 61.4579 6.46275 61.1816 6.1891C60.9053 5.91545 60.5306 5.76172 60.1399 5.76172C59.7492 5.76172 59.3745 5.91545 59.0982 6.1891C58.8219 6.46275 58.6667 6.8339 58.6667 7.2209V24.7311C58.6667 25.1181 58.8219 25.4893 59.0982 25.7629C59.3745 26.0366 59.7492 26.1903 60.1399 26.1903Z" fill="black"/>
<path d="M75.8651 80.6665H69.2301C68.7902 80.6665 68.3683 80.8597 68.0572 81.2035C67.7462 81.5473 67.5714 82.0136 67.5714 82.4998C67.5714 82.9861 67.7462 83.4524 68.0572 83.7962C68.3683 84.14 68.7902 84.3332 69.2301 84.3332H75.8651C76.305 84.3332 76.7269 84.14 77.038 83.7962C77.349 83.4524 77.5238 82.9861 77.5238 82.4998C77.5238 82.0136 77.349 81.5473 77.038 81.2035C76.7269 80.8597 76.305 80.6665 75.8651 80.6665Z" fill="black"/>
</svg>
