<svg width="89" height="90" viewBox="0 0 89 90" fill="none" xmlns="http://www.w3.org/2000/svg">
<path d="M33.1259 13.3178H20.3795L11.9598 20.5991V13.3178H2.42081V2H33.1259V13.3178Z" stroke="black" stroke-width="3" stroke-miterlimit="10"/>
<path d="M58.7346 56.8604H12.4845V62.3483H58.7346V56.8604Z" stroke="black" stroke-width="3" stroke-miterlimit="10"/>
<path d="M32.0228 24.3311H32.0201C28.131 24.3311 24.9782 27.4861 24.9782 31.3781V33.9955C24.9782 37.8875 28.131 41.0426 32.0201 41.0426H32.0228C35.9119 41.0426 39.0647 37.8875 39.0647 33.9955V31.3781C39.0647 27.4861 35.9119 24.3311 32.0228 24.3311Z" stroke="black" stroke-width="3" stroke-miterlimit="10"/>
<path d="M65.8412 24.3311H65.8385C61.9493 24.3311 58.7965 27.4861 58.7965 31.3781V33.9955C58.7965 37.8875 61.9493 41.0426 65.8385 41.0426H65.8412C69.7303 41.0426 72.8831 37.8875 72.8831 33.9955V31.3781C72.8831 27.4861 69.7303 24.3311 65.8412 24.3311Z" stroke="black" stroke-width="3" stroke-miterlimit="10"/>
<path d="M36.2015 39.6426V42.7312C36.2015 45.0416 34.3286 46.9158 32.0199 46.9158C29.7112 46.9158 27.8383 45.0416 27.8383 42.7312V39.6426" stroke="black" stroke-width="3" stroke-miterlimit="10"/>
<path d="M17.9252 56.8607V50.1314C17.9252 48.2249 19.1792 46.5473 21.0089 46.0114L28.0212 43.9541" stroke="black" stroke-width="3" stroke-miterlimit="10"/>
<path d="M46.1307 51.0981V50.1314C46.1307 48.2249 44.8768 46.5473 43.047 46.0114L36.0347 43.9541" stroke="black" stroke-width="3" stroke-miterlimit="10"/>
<path d="M69.5141 41.9858C68.3893 40.8602 66.5676 40.8602 65.4429 41.9858L56.3371 51.0982H43.483C41.8927 51.0982 40.6038 52.3881 40.6038 53.9795C40.6038 55.5709 41.8927 56.8608 43.483 56.8608H58.7373L69.5141 46.06C70.6389 44.9344 70.6389 43.1114 69.5141 41.9858Z" stroke="black" stroke-width="3" stroke-miterlimit="10"/>
<path d="M1 87.9995H88.3903" stroke="black" stroke-width="3" stroke-miterlimit="10"/>
<path d="M15.1512 62.3481V87.9997" stroke="black" stroke-width="3" stroke-miterlimit="10"/>
<path d="M54.6796 62.3481V87.9997" stroke="black" stroke-width="3" stroke-miterlimit="10"/>
<path d="M49.0179 87.9996L46.1307 82.4282H23.5384L20.6512 87.9996" stroke="black" stroke-width="3" stroke-miterlimit="10"/>
<path d="M54.6796 68.0086H67.3131C70.3887 68.0086 72.8804 65.5151 72.8804 62.4372V44.8398C72.8804 42.7448 71.1825 41.043 69.0864 41.043H67.4154" stroke="black" stroke-width="3" stroke-miterlimit="10"/>
<path d="M54.6796 73.6153H70.4479C74.8743 73.6153 78.4612 70.0258 78.4612 65.5962V48.3784H72.8804" stroke="black" stroke-width="3" stroke-miterlimit="10"/>
<path d="M64.2803 73.6147L65.9863 87.9997" stroke="black" stroke-width="3" stroke-miterlimit="10"/>
<path d="M69.9203 73.6147L71.6236 87.9997" stroke="black" stroke-width="3" stroke-miterlimit="10"/>
</svg>
