<svg width="84" height="83" viewBox="0 0 84 83" fill="none" xmlns="http://www.w3.org/2000/svg">
<path d="M13.6765 19.5977C9.20781 19.5977 5.57147 23.1317 5.57147 27.4771C5.57147 31.8225 9.20781 35.3566 13.6765 35.3566C18.1453 35.3566 21.7816 31.8225 21.7816 27.4771C21.7816 23.1317 18.1453 19.5977 13.6765 19.5977V19.5977Z" stroke="black" stroke-width="3" stroke-linecap="round" stroke-linejoin="round"/>
<path d="M10.0939 58.0918C5.62514 58.0918 1.9888 61.6259 1.9888 65.9713C1.9888 70.3166 5.62514 73.8507 10.0939 73.8507C14.5626 73.8507 18.1989 70.3166 18.1989 65.9713C18.1989 61.6259 14.5626 58.0918 10.0939 58.0918Z" stroke="black" stroke-width="3" stroke-linecap="round" stroke-linejoin="round"/>
<path d="M41.7848 65.2412C37.3161 65.2412 33.6797 68.7753 33.6797 73.1207C33.6797 77.466 37.3161 81.0001 41.7848 81.0001C46.2535 81.0001 49.8899 77.466 49.8899 73.1207C49.8899 68.7753 46.2535 65.2412 41.7848 65.2412Z" stroke="black" stroke-width="3" stroke-linecap="round" stroke-linejoin="round"/>
<path d="M45.3673 30.0459C40.8986 30.0459 37.2623 33.58 37.2623 37.9254C37.2623 42.2707 40.8986 45.8048 45.3673 45.8048C49.8361 45.8048 53.4724 42.2707 53.4724 37.9254C53.4724 33.58 49.8361 30.0459 45.3673 30.0459Z" stroke="black" stroke-width="3" stroke-linecap="round" stroke-linejoin="round"/>
<path d="M73.4755 37.1953C69.0068 37.1953 65.3704 40.7294 65.3704 45.0748C65.3704 49.4201 69.0068 52.9542 73.4755 52.9542C77.9442 52.9542 81.5806 49.4201 81.5806 45.0748C81.5806 40.7294 77.9442 37.1953 73.4755 37.1953Z" stroke="black" stroke-width="3" stroke-linecap="round" stroke-linejoin="round"/>
<path d="M73.4755 2C69.0068 2 65.3704 5.53409 65.3704 9.87946C65.3704 14.2248 69.0068 17.7589 73.4755 17.7589C77.9442 17.7589 81.5806 14.2248 81.5806 9.87946C81.5806 5.53409 77.9442 2 73.4755 2Z" stroke="black" stroke-width="3" stroke-linecap="round" stroke-linejoin="round"/>
<path d="M16.3216 61.0194L39.0965 42.9102" stroke="black" stroke-width="3" stroke-linecap="round" stroke-linejoin="round"/>
<path d="M17.8258 34.2153L37.6229 66.3625" stroke="black" stroke-width="3" stroke-linecap="round" stroke-linejoin="round"/>
<path d="M47.7744 67.8185L67.4858 50.375" stroke="black" stroke-width="3" stroke-linecap="round" stroke-linejoin="round"/>
<path d="M50.8636 32.1415L67.7839 15.4814" stroke="black" stroke-width="3" stroke-linecap="round" stroke-linejoin="round"/>
</svg>
