<svg width="18" height="21" viewBox="0 0 18 21" fill="none" xmlns="http://www.w3.org/2000/svg">
<path d="M16.9808 19.3163C16.3128 19.988 11.5025 24.2012 4.25598 14.391C-3.38245 4.04781 1.19716 1.21569 3.18364 0.516585V0.514515C3.21516 0.503648 3.24669 0.494851 3.2788 0.484502C3.33471 0.465873 3.38645 0.449831 3.4376 0.434307C3.45961 0.428097 3.48221 0.420853 3.50421 0.414643C3.78375 0.334953 3.96158 0.308562 3.96158 0.308562C3.96158 0.308562 3.96039 0.313219 3.9592 0.320463C5.27599 0.119685 6.5107 0.574024 6.74682 1.57792L7.16195 3.85738C7.44446 5.05481 6.35428 6.49286 4.72762 7.07139L4.59618 7.11796C5.45679 9.71722 7.19526 12.7092 10.602 15.4327L10.8524 15.2428C12.1781 14.2384 14.1444 14.0402 15.2465 14.7972L17.183 16.2617C18.2577 17.0011 18.2167 18.3181 16.9802 19.3173L16.9808 19.3163Z" fill="white"/>
</svg>
