<svg width="11" height="22" viewBox="0 0 11 22" fill="none" xmlns="http://www.w3.org/2000/svg">
<path d="M0.859673 12.0547H3.13251V21.5086C3.13251 21.6952 3.28236 21.8466 3.46704 21.8466H7.32098C7.50566 21.8466 7.65551 21.6952 7.65551 21.5086V12.0993H10.2685C10.4386 12.0993 10.5816 11.9704 10.6006 11.7998L10.9975 8.31937C11.0085 8.22362 10.9785 8.12787 10.9149 8.05586C10.8513 7.98384 10.7606 7.94293 10.6654 7.94293H7.65551V5.76122C7.65551 5.10368 8.00583 4.7702 8.69756 4.7702H10.6654C10.8501 4.7702 11 4.61881 11 4.43223V1.2374C11 1.05082 10.8501 0.899428 10.6654 0.899428H7.95359C7.93455 0.898609 7.89203 0.896973 7.82925 0.896973C7.35865 0.896973 5.72287 0.990264 4.43093 2.19119C2.99927 3.52182 3.19853 5.11513 3.24591 5.39174V7.94293H0.859673C0.674995 7.94293 0.525146 8.09432 0.525146 8.2809V11.7171C0.525146 11.9037 0.674995 12.0551 0.859673 12.0551V12.0547Z" fill="white"/>
</svg>
