<svg width="71" height="73" viewBox="0 0 71 73" fill="none" xmlns="http://www.w3.org/2000/svg">
<path d="M60.2011 0.125C54.6457 0.125 50.1268 4.81554 50.1268 10.5794C50.1268 16.3432 54.6457 21.0338 60.2011 21.0338C65.7564 21.0338 70.2753 16.3432 70.2753 10.5794C70.2753 4.81554 65.7564 0.125 60.2011 0.125ZM55.9173 17.3794C56.0919 16.5163 56.4881 15.7241 57.0926 15.0876C57.9478 14.2106 59.075 13.7273 60.2682 13.7273C62.3458 13.7273 64.13 15.2432 64.5979 17.3062C63.3431 18.1914 61.8297 18.7106 60.2011 18.7106C58.6205 18.7106 57.1497 18.2181 55.9173 17.3794ZM58.0295 9.08093C58.0295 7.79969 59.0336 6.75773 60.2682 6.75773C61.5029 6.75773 62.5069 7.79969 62.5069 9.08093C62.5069 10.3622 61.5029 11.4041 60.2682 11.4041C59.0336 11.4041 58.0295 10.3622 58.0295 9.08093ZM66.3766 15.5661C65.7788 14.1687 64.7647 13.0211 63.4931 12.2893C64.2655 11.4541 64.7457 10.3262 64.7457 9.08093C64.7457 6.51844 62.7375 4.43453 60.2682 4.43453C57.7989 4.43453 55.7908 6.51844 55.7908 9.08093C55.7908 10.318 56.2665 11.4367 57.0277 12.2695C56.4803 12.5832 55.9676 12.9746 55.5087 13.4451C54.8908 14.0956 54.4296 14.8529 54.1006 15.6684C53.017 14.2756 52.3655 12.5053 52.3655 10.5794C52.3655 6.09562 55.8815 2.4482 60.2011 2.4482C64.5207 2.4482 68.0366 6.09562 68.0366 10.5794C68.0366 12.4589 67.4131 14.1873 66.3766 15.5661Z" fill="white"/>
<path d="M50.0093 54.2011C49.819 53.8073 49.4317 53.5587 49.0075 53.5587H43.4107V46.5891C43.4107 45.9479 42.9103 45.4275 42.2913 45.4275H28.859C28.24 45.4275 27.7396 45.9479 27.7396 46.5891V53.5587H22.1429C21.7186 53.5587 21.3313 53.8073 21.141 54.2011L18.9023 58.8474C18.7288 59.2075 18.7467 59.635 18.9516 59.9777C19.1564 60.3192 19.5157 60.5283 19.9041 60.5283H21.0235V69.8211C21.0235 70.4623 21.5238 70.9827 22.1429 70.9827H27.7396C27.7396 71.6239 28.24 72.1443 28.859 72.1443H42.2913C42.9103 72.1443 43.4107 71.6239 43.4107 70.9827H49.0075C49.6265 70.9827 50.1268 70.4623 50.1268 69.8211V60.5283H51.2462C51.6346 60.5283 51.9939 60.3192 52.1988 59.9777C52.4036 59.635 52.4215 59.2075 52.248 58.8474L50.0093 54.2011ZM22.8346 55.8819H27.7396V58.2051H21.7153L22.8346 55.8819ZM23.2622 68.6595V60.5283H27.7396V68.6595H23.2622ZM36.6945 69.8211H34.4558V66.3363C34.4558 65.6962 34.9573 65.1747 35.5752 65.1747C36.193 65.1747 36.6945 65.6962 36.6945 66.3363V69.8211ZM41.172 69.8211H38.9332V66.3363C38.9332 64.415 37.4266 62.8515 35.5752 62.8515C33.7237 62.8515 32.2171 64.415 32.2171 66.3363V69.8211H29.9784V47.7507H41.172V69.8211ZM48.3157 55.8819L49.4351 58.2051H43.4107V55.8819H48.3157ZM47.8881 68.6595H43.4107V60.5283H47.8881V68.6595Z" fill="white"/>
<path d="M32.217 50.0737H34.4558V52.3969H32.217V50.0737Z" fill="white"/>
<path d="M32.217 54.7202H34.4558V57.0434H32.217V54.7202Z" fill="white"/>
<path d="M32.217 59.3665H34.4558V61.6897H32.217V59.3665Z" fill="white"/>
<path d="M36.6945 50.0737H38.9332V52.3969H36.6945V50.0737Z" fill="white"/>
<path d="M36.6945 54.7202H38.9332V57.0434H36.6945V54.7202Z" fill="white"/>
<path d="M36.6945 59.3665H38.9332V61.6897H36.6945V59.3665Z" fill="white"/>
<path d="M46.7687 29.165C47.3878 29.165 47.8881 28.6446 47.8881 28.0034V23.357C47.8881 22.7158 47.3878 22.1954 46.7687 22.1954H45.0651C44.9476 21.8504 44.811 21.5112 44.661 21.1813L45.8654 19.9303C46.0759 19.7119 46.1934 19.4168 46.1934 19.109C46.1934 18.8012 46.0759 18.505 45.8654 18.2878L42.6999 15.0016C42.2622 14.5474 41.5548 14.5474 41.1171 15.0016L39.9116 16.2515C39.5937 16.0947 39.2679 15.9541 38.9344 15.8321V14.0642C38.9344 13.423 38.434 12.9026 37.815 12.9026H33.3376C32.7186 12.9026 32.2182 13.423 32.2182 14.0642V15.8321C31.8846 15.9541 31.5589 16.0947 31.241 16.2515L30.0354 15.0016C29.5978 14.5474 28.8903 14.5474 28.4527 15.0016L25.2871 18.2878C25.0767 18.5061 24.9592 18.8012 24.9592 19.109C24.9592 19.4168 25.0767 19.713 25.2871 19.9303L26.4916 21.1813C26.3404 21.5112 26.205 21.8504 26.0875 22.1954H24.3816C23.7626 22.1954 23.2622 22.7158 23.2622 23.357V28.0034C23.2622 28.6446 23.7626 29.165 24.3816 29.165H26.0852C26.2028 29.51 26.3393 29.8492 26.4893 30.1791L25.2849 31.4301C25.0744 31.6485 24.9569 31.9435 24.9569 32.2513C24.9569 32.5592 25.0744 32.8554 25.2849 33.0726L28.4504 36.3588C28.8881 36.8129 29.5955 36.8129 30.0332 36.3588L31.2388 35.1089C31.5567 35.2657 31.8824 35.4063 32.216 35.5282V37.2962C32.216 37.9374 32.7163 38.4578 33.3353 38.4578H37.8128C38.4318 38.4578 38.9321 37.9374 38.9321 37.2962V35.5282C39.2657 35.4063 39.5914 35.2657 39.9093 35.1089L41.1149 36.3588C41.5525 36.8129 42.26 36.8129 42.6976 36.3588L45.8632 33.0726C46.0736 32.8542 46.1912 32.5592 46.1912 32.2513C46.1912 31.9435 46.0736 31.6473 45.8632 31.4301L44.6588 30.1791C44.8099 29.8492 44.9453 29.51 45.0628 29.165H46.7687ZM44.2368 26.8418C43.7263 26.8418 43.2808 27.1996 43.1532 27.713C42.9696 28.4494 42.6887 29.1534 42.3182 29.8039C42.0596 30.2604 42.1301 30.8412 42.4906 31.2152L43.4901 32.2513L41.9074 33.895L40.9078 32.8589C40.5473 32.4837 39.9866 32.4116 39.5466 32.68C38.9209 33.0633 38.2437 33.3537 37.5329 33.5442C37.0404 33.6755 36.6945 34.1389 36.6945 34.6686V36.1346H34.4558V34.6686C34.4558 34.1389 34.1099 33.6766 33.6163 33.5442C32.9055 33.3537 32.2283 33.0633 31.6026 32.68C31.1638 32.4105 30.6018 32.4825 30.2414 32.8589L29.2418 33.895L27.659 32.2513L28.6586 31.2152C29.0191 30.8412 29.0907 30.2604 28.831 29.8039C28.4605 29.1534 28.1796 28.4494 27.996 27.713C27.8684 27.1996 27.424 26.8418 26.9136 26.8418H25.5009V24.5186H26.9136C27.424 24.5186 27.8695 24.1608 27.9971 23.6474C28.1807 22.9109 28.4616 22.207 28.8321 21.5565C29.0907 21.1 29.0202 20.5192 28.6598 20.1452L27.6602 19.109L29.2429 17.4654L30.2425 18.5015C30.603 18.8767 31.1649 18.951 31.6037 18.6804C32.2294 18.2971 32.9066 18.0067 33.6174 17.8162C34.111 17.6837 34.4569 17.2214 34.4569 16.6917V15.2258H36.6956V16.6917C36.6956 17.2214 37.0415 17.6837 37.5352 17.8162C38.2459 18.0067 38.9232 18.2971 39.5489 18.6804C39.9866 18.9499 40.5496 18.8779 40.91 18.5015L41.9096 17.4654L43.4924 19.109L42.4928 20.1452C42.1324 20.5192 42.0607 21.1 42.3204 21.5565C42.6909 22.207 42.9719 22.9109 43.1555 23.6474C43.2831 24.1596 43.7286 24.5186 44.239 24.5186H45.6494V26.8418H44.2368Z" fill="white"/>
<path d="M35.5752 19.8723C32.4891 19.8723 29.9784 22.4778 29.9784 25.6803C29.9784 28.8828 32.4891 31.4883 35.5752 31.4883C38.6613 31.4883 41.172 28.8828 41.172 25.6803C41.172 22.4778 38.6613 19.8723 35.5752 19.8723ZM35.5752 29.1651C33.7238 29.1651 32.2171 27.6016 32.2171 25.6803C32.2171 23.759 33.7238 22.1955 35.5752 22.1955C37.4266 22.1955 38.9333 23.759 38.9333 25.6803C38.9333 27.6016 37.4266 29.1651 35.5752 29.1651Z" fill="white"/>
<path d="M34.4557 40.781H36.6944V43.1042H34.4557V40.781Z" fill="white"/>
<path d="M49.5245 4.82021C45.2519 2.50862 40.4275 1.28662 35.5751 1.28662C30.7226 1.28662 25.8982 2.50862 21.6256 4.82021L22.6599 6.87972C26.6157 4.74122 31.0808 3.60982 35.5751 3.60982C40.0693 3.60982 44.5344 4.74122 48.4902 6.88088L49.5245 4.82021Z" fill="white"/>
<path d="M7.61122 31.5322C7.70972 28.8617 8.15634 26.2318 8.94101 23.7146L6.81199 23.0002C5.96464 25.7207 5.48219 28.562 5.37585 31.4451L7.61122 31.5322Z" fill="white"/>
<path d="M18.3537 55.5414C17.6116 54.9385 16.8862 54.288 16.2012 53.605L14.6509 55.2812C15.3908 56.0176 16.1732 56.7216 16.9758 57.372L18.3537 55.5414Z" fill="white"/>
<path d="M56.0258 52.4724C55.0329 53.5759 53.9471 54.6074 52.7953 55.5414L54.1743 57.3709C55.4157 56.3638 56.5888 55.2486 57.66 54.058L56.0258 52.4724Z" fill="white"/>
<path d="M63.9384 21.7937L61.8374 22.5975C62.6042 24.75 63.1202 27.0046 63.3754 29.2976L65.5984 29.0316C65.3242 26.5551 64.7645 24.1192 63.9384 21.7937Z" fill="white"/>
<path d="M10.9492 53.5584C16.5046 53.5584 21.0235 48.8679 21.0235 43.1041C21.0235 37.3402 16.5046 32.6497 10.9492 32.6497C5.39385 32.6497 0.875 37.3402 0.875 43.1041C0.875 48.8679 5.39385 53.5584 10.9492 53.5584ZM10.9492 34.9729C15.2688 34.9729 18.7847 38.6203 18.7847 43.1041C18.7847 47.5878 15.2688 51.2352 10.9492 51.2352C6.62963 51.2352 3.11372 47.5878 3.11372 43.1041C3.11372 38.6203 6.62963 34.9729 10.9492 34.9729Z" fill="white"/>
<path d="M10.9492 21.0338C16.5046 21.0338 21.0235 16.3432 21.0235 10.5794C21.0235 4.81554 16.5046 0.125 10.9492 0.125C5.39385 0.125 0.875 4.81554 0.875 10.5794C0.875 16.3432 5.39385 21.0338 10.9492 21.0338ZM10.9492 2.4482C15.2688 2.4482 18.7847 6.09562 18.7847 10.5794C18.7847 15.0632 15.2688 18.7106 10.9492 18.7106C6.62963 18.7106 3.11372 15.0632 3.11372 10.5794C3.11372 6.09562 6.62963 2.4482 10.9492 2.4482Z" fill="white"/>
<path d="M10.9491 46.5889C10.3313 46.5889 9.82978 46.0674 9.82978 45.4273H7.59106C7.59106 46.9397 8.53021 48.2175 9.82978 48.6984V50.0737H12.0685V48.6984C13.3681 48.2175 14.3072 46.9397 14.3072 45.4273C14.3072 43.506 12.8006 41.9425 10.9491 41.9425C10.3313 41.9425 9.82978 41.421 9.82978 40.7809C9.82978 40.1409 10.3313 39.6193 10.9491 39.6193C11.567 39.6193 12.0685 40.1409 12.0685 40.7809H14.3072C14.3072 39.2685 13.3681 37.9908 12.0685 37.5099V36.1345H9.82978V37.5099C8.53021 37.9908 7.59106 39.2685 7.59106 40.7809C7.59106 42.7022 9.09772 44.2657 10.9491 44.2657C11.567 44.2657 12.0685 44.7873 12.0685 45.4273C12.0685 46.0674 11.567 46.5889 10.9491 46.5889Z" fill="white"/>
<path d="M60.2011 30.3267C54.6457 30.3267 50.1268 35.0172 50.1268 40.7811C50.1268 46.5449 54.6457 51.2354 60.2011 51.2354C65.7564 51.2354 70.2753 46.5449 70.2753 40.7811C70.2753 35.0172 65.7564 30.3267 60.2011 30.3267ZM61.3204 48.8193V47.7506H59.0817V48.8193C55.6576 48.3071 52.9487 45.496 52.4551 41.9427H53.4849V39.6195H52.4551C52.9487 36.0661 55.6576 33.2551 59.0817 32.7428V33.8115H61.3204V32.7428C64.7445 33.2551 67.4534 36.0661 67.947 39.6195H66.9172V41.9427H67.947C67.4534 45.496 64.7445 48.3071 61.3204 48.8193Z" fill="white"/>
<path d="M61.3205 34.9729H59.0818V40.7809C59.0818 41.2211 59.3213 41.6231 59.7008 41.8205L64.1782 44.1437L65.1801 42.0656L61.3205 40.063V34.9729Z" fill="white"/>
<path d="M5.23606 11.8572L10.1545 17.0066C10.365 17.2261 10.6504 17.3504 10.9493 17.3504C11.2481 17.3504 11.5336 17.2273 11.744 17.0066L16.6625 11.8572C17.9968 10.4598 17.9968 8.18656 16.6625 6.78916C15.3629 5.42776 13.0928 5.43009 11.7944 6.78916L10.9493 7.67314L10.1042 6.788C8.80681 5.42893 6.53563 5.4266 5.23606 6.788C3.90178 8.1854 3.90178 10.4587 5.23606 11.8572ZM6.82555 8.42469C7.05278 8.18656 7.35165 8.05762 7.66955 8.05762C7.98856 8.05762 8.28855 8.18772 8.51466 8.42469L10.1545 10.1404C10.5743 10.5806 11.3243 10.5806 11.744 10.1404L13.3839 8.42353C13.8339 7.9496 14.6185 7.94843 15.073 8.42353C15.5465 8.91837 15.5465 9.72568 15.073 10.2205L10.9493 14.5382L6.82555 10.2205C6.35318 9.72568 6.35318 8.91953 6.82555 8.42469Z" fill="white"/>
</svg>
