<svg width="70" height="63" viewBox="0 0 70 63" fill="none" xmlns="http://www.w3.org/2000/svg">
<path d="M66.3639 0.375H4.32178C2.36838 0.375 0.875 1.86838 0.875 3.82178V58.9703C0.875 60.9237 2.36838 62.4171 4.32178 62.4171H45.6832V60.1192H4.32178C3.63231 60.1192 3.17285 59.6598 3.17285 58.9703V11.8643H67.5128V58.9703C67.5128 59.6598 67.0533 60.1192 66.3639 60.1192H54.8746V62.4171H66.3639C68.3173 62.4171 69.8106 60.9237 69.8106 58.9703V3.82178C69.8106 1.86838 68.3173 0.375 66.3639 0.375ZM3.17285 9.56642V3.82178C3.17285 3.13231 3.63231 2.67285 4.32178 2.67285H66.3639C67.0533 2.67285 67.5128 3.13231 67.5128 3.82178V9.56642H3.17285Z" fill="white"/>
<path d="M5.47058 4.97095H7.76844V7.2688H5.47058V4.97095Z" fill="white"/>
<path d="M10.0664 4.97095H12.3643V7.2688H10.0664V4.97095Z" fill="white"/>
<path d="M14.662 4.97095H16.9598V7.2688H14.662V4.97095Z" fill="white"/>
<path d="M64.0659 14.1624H47.981V27.9495H64.0659V14.1624ZM61.7681 25.6516H50.2788V16.4602H61.7681V25.6516Z" fill="white"/>
<path d="M43.3853 14.1624H27.3003V27.9495H43.3853V14.1624ZM41.0874 25.6516H29.5981V16.4602H41.0874V25.6516Z" fill="white"/>
<path d="M6.61951 30.2471H22.7045V32.5449H6.61951V30.2471Z" fill="white"/>
<path d="M22.7045 14.1624H6.61951V27.9495H22.7045V14.1624ZM20.4066 25.6516H8.91736V16.4602H20.4066V25.6516Z" fill="white"/>
<path d="M22.7045 35.9917H6.61951V49.7788H22.7045V35.9917ZM20.4066 47.481H8.91736V38.2896H20.4066V47.481Z" fill="white"/>
<path d="M6.61951 52.0767H22.7045V54.3745H6.61951V52.0767Z" fill="white"/>
<path d="M27.3003 30.2471H43.3853V32.5449H27.3003V30.2471Z" fill="white"/>
<path d="M47.981 30.2471H64.0659V32.5449H47.981V30.2471Z" fill="white"/>
<path d="M47.981 52.0767H64.0659V54.3745H47.981V52.0767Z" fill="white"/>
<path d="M45.6831 45.1834C45.6831 39.4387 41.0874 34.843 35.3428 34.843C29.5982 34.843 25.0024 39.4387 25.0024 45.1834C25.0024 50.928 29.5982 55.5237 35.3428 55.5237C37.7556 55.5237 40.0535 54.7192 41.8919 53.2259L50.7383 62.0728L52.3467 60.4639L43.3853 51.6175C44.8787 49.7791 45.6831 47.4812 45.6831 45.1834ZM27.3003 45.1834C27.3003 40.7027 30.8621 37.1409 35.3428 37.1409C39.8235 37.1409 43.3853 40.7027 43.3853 45.1834C43.3853 49.6641 39.8235 53.2259 35.3428 53.2259C30.8621 53.2259 27.3003 49.6641 27.3003 45.1834Z" fill="white"/>
<path d="M36.4917 40.5874H34.1939V44.0342H30.7471V46.332H34.1939V49.7788H36.4917V46.332H39.9385V44.0342H36.4917V40.5874Z" fill="white"/>
<path d="M47.981 49.7788H64.0659V35.9917H47.981V49.7788ZM50.2788 38.2896H61.7681V47.481H50.2788V38.2896Z" fill="white"/>
</svg>
