<svg width="78" height="78" viewBox="0 0 78 78" fill="none" xmlns="http://www.w3.org/2000/svg">
<path d="M71.0627 62.6218L67.9344 61.5357C69.6857 60.1486 70.812 58.0059 70.812 55.6037V53.3108C70.812 49.139 67.4176 45.7446 63.2458 45.7446C59.0739 45.7446 55.6796 49.139 55.6796 53.3108V55.6037C55.6796 58.0059 56.8065 60.1486 58.5578 61.5357L55.4289 62.6218C53.4222 63.3189 51.7353 64.5972 50.5274 66.2273H42.0761V62.892C42.0761 58.502 39.2895 54.585 35.1425 53.1453L32.0136 52.0592C33.7649 50.6721 34.8918 48.5294 34.8918 46.1272V43.8343C34.8918 39.6618 31.4974 36.2681 27.3256 36.2681C23.1537 36.2681 19.7594 39.6624 19.7594 43.8343V46.1272C19.7594 48.5294 20.8863 50.6721 22.637 52.0592L19.5087 53.1453C15.3617 54.585 12.5751 58.502 12.5751 62.892V66.2273H1.64643C1.0132 66.2273 0.5 66.7405 0.5 67.3737V76.8503C0.5 77.4835 1.0132 77.9967 1.64643 77.9967H49.3366C49.3881 77.9967 49.4389 77.992 49.4892 77.9855C49.5394 77.992 49.5903 77.9967 49.6423 77.9967H76.8498C77.4831 77.9967 77.9963 77.4835 77.9963 76.8503V72.3686C77.9963 67.9791 75.2103 64.0621 71.0627 62.6218ZM57.9724 53.3108C57.9724 50.4031 60.338 48.0375 63.2458 48.0375C66.1535 48.0375 68.5191 50.4031 68.5191 53.3108V55.6037C68.5191 58.5115 66.1535 60.8771 63.2458 60.8771C60.338 60.8771 57.9724 58.5115 57.9724 55.6037V53.3108ZM22.0522 43.8343C22.0522 40.9265 24.4178 38.5609 27.3256 38.5609C30.2334 38.5609 32.5989 40.9265 32.5989 43.8343V46.1272C32.5989 49.0349 30.2334 51.4005 27.3256 51.4005C24.4178 51.4005 22.0522 49.0349 22.0522 46.1272V43.8343ZM29.7308 53.6934L30.8447 54.0801L27.3256 60.1859L23.8065 54.0801L24.9204 53.6934H29.7308ZM14.868 62.892C14.868 59.4776 17.0355 56.4309 20.2607 55.311L21.6017 54.8457L26.3323 63.0546C26.5369 63.41 26.9158 63.6287 27.3256 63.6287C27.7353 63.6287 28.1143 63.41 28.3189 63.0546L33.0495 54.8457L34.3904 55.311C37.6157 56.4309 39.7826 59.4776 39.7826 62.892V66.2273H14.868V62.892ZM2.79287 68.5201H49.2426C48.759 69.7198 48.4959 71.0217 48.4959 72.3686V75.7038H2.79287V68.5201ZM75.7034 75.7038H50.7887V72.3686C50.7887 68.9541 52.9557 65.908 56.1809 64.7876L60.8406 63.1699H65.651L70.3106 64.7876C73.5365 65.908 75.7034 68.9541 75.7034 72.3686V75.7038Z" fill="white"/>
<path d="M70.7357 8.75384H59.0905C58.4572 8.75384 57.944 9.26764 57.944 9.90028C57.944 10.5335 58.4572 11.0467 59.0905 11.0467H70.7357C73.475 11.0467 75.7034 13.2751 75.7034 16.015V31.9113C75.7034 34.6506 73.475 36.879 70.7357 36.879H54.9919C54.3587 36.879 53.8455 37.3922 53.8455 38.0254V42.9009L48.16 37.2148C47.9448 36.9996 47.6533 36.879 47.3494 36.879H38.0254C35.2862 36.879 33.0572 34.6506 33.0572 31.9113V16.0144C33.0572 13.2751 35.2856 11.0467 38.0254 11.0467H53.7308C54.364 11.0467 54.8772 10.5335 54.8772 9.90028C54.8772 9.26705 54.364 8.75384 53.7308 8.75384H47.7314V7.76055C47.7314 3.75719 44.4742 0.5 40.4708 0.5H7.76055C3.75719 0.5 0.5 3.75719 0.5 7.76055V10.2952C0.5 10.9285 1.0132 11.4417 1.64643 11.4417C2.27966 11.4417 2.79287 10.9285 2.79287 10.2952V7.76055C2.79287 5.02129 5.02129 2.79287 7.76055 2.79287H40.4708C43.2101 2.79287 45.4385 5.02129 45.4385 7.76055V8.75384H38.0254C34.0221 8.75384 30.7649 12.011 30.7649 16.0144V28.6246H18.7661C18.1328 28.6246 17.6196 29.1378 17.6196 29.771V34.6464L11.9342 28.9604C11.719 28.7452 11.4275 28.6246 11.1236 28.6246H7.76055C5.02129 28.6246 2.79287 26.3961 2.79287 23.6569V15.6259C2.79287 14.9927 2.27966 14.4795 1.64643 14.4795C1.0132 14.4795 0.5 14.9927 0.5 15.6259V23.6569C0.5 27.6608 3.75719 30.9174 7.76055 30.9174H10.6482L17.9555 38.2247C18.1748 38.444 18.4681 38.5605 18.7661 38.5599C18.9139 38.5599 19.0629 38.5315 19.2048 38.473C19.6328 38.2956 19.9125 37.8776 19.9125 37.4141V30.9174H30.7649V31.9113C30.7649 35.9147 34.0221 39.1713 38.0254 39.1713H46.8747L54.1813 46.4785C54.4007 46.6979 54.6939 46.8144 54.9919 46.8144C55.1397 46.8144 55.2887 46.786 55.4306 46.7269C55.8587 46.5495 56.1384 46.1315 56.1384 45.6679V39.1713H70.7357C74.7391 39.1713 77.9963 35.9147 77.9963 31.9113V16.0144C77.9963 12.011 74.7391 8.75384 70.7357 8.75384Z" fill="white"/>
</svg>
